<svg width="32" height="32" viewBox="0 0 32 32" fill="none" xmlns="http://www.w3.org/2000/svg">
<rect width="32" height="32" rx="8" fill="black"/>
<path d="M5 16C5 22.0751 9.92487 27 16 27C22.0751 27 27 22.0751 27 16C27 9.92487 22.0751 5 16 5C9.92487 5 5 9.92487 5 16Z" fill="white"/>
<path d="M18.5151 13.7003C20.2055 15.3898 22.7298 15.7098 27.1998 15.7701C27.0791 9.83402 22.3512 5.04147 16.4435 4.81034C16.497 9.40797 16.8006 11.9849 18.5151 13.7003ZM13.701 13.7003C15.4172 11.9841 15.7191 9.40452 15.7734 4.79999C9.76311 4.91987 4.92055 9.76157 4.7998 15.7719C9.4052 15.7184 11.9839 15.4157 13.7001 13.6994L13.701 13.7003ZM18.5151 18.5144C16.8273 20.2031 16.5065 22.7257 16.4453 27.1888C22.2805 26.9585 26.9592 22.2798 27.1895 16.4454C22.7264 16.5058 20.2037 16.8258 18.5151 18.5144ZM13.701 18.5144C11.9847 16.7999 9.40865 16.4963 4.81102 16.4428C5.04215 22.3505 9.83469 27.0792 15.77 27.2C15.7096 22.7291 15.3905 20.2048 13.7001 18.5153L13.701 18.5144Z" fill="black"/>
</svg>
