<?xml version="1.0" encoding="UTF-8"?>
<svg fill="none" viewBox="0 0 26 25" xmlns="http://www.w3.org/2000/svg">
    <path d="m7.7632 2c-3.1179 0-5.3769 2.0392-6.2949 4.5486-0.91581 2.5034-0.54745 5.5893 1.6454 7.8192 1.0704 1.0885 6.5141 6.6183 8.4788 8.614 0.7813 0.7937 2.0578 0.7968 2.8423 0.0046 1.9694-1.9884 7.4691-7.5461 8.4947-8.6336 2.1524-2.2823 2.5155-5.3574 1.599-7.8495-0.9186-2.4978-3.1674-4.5033-6.2595-4.5033-1.4831 0-2.8467 0.79777-3.8234 1.549-0.5683 0.43708-1.0585 0.89996-1.4317 1.284-0.3729-0.38404-0.8627-0.84683-1.4303-1.2838-0.9759-0.75119-2.3384-1.5493-3.8204-1.5493z" stroke="#fff" stroke-opacity=".8" stroke-width="2"/>
    <path d="m4.3615 13.141c-1.6623-1.6904-1.9625-4.0426-1.2497-5.991 0.71115-1.944 2.3925-3.3998 4.6514-3.3998 0.89065 0 1.8662 0.50336 2.7529 1.186 0.8652 0.66609 1.5345 1.4157 1.7961 1.7254l0.573-0.484-0.573 0.484c0.3665 0.43382 1.0362 0.43389 1.4028 2.2e-4 0.2617-0.30963 0.9315-1.0593 1.7975-1.7254 0.8874-0.68257 1.8642-1.1862 2.7565-1.1862 2.2405 0 3.9083 1.4302 4.617 3.3573 0.7103 1.9315 0.4235 4.2918-1.2296 6.0448-1.0063 1.0671-6.4823 6.6009-8.465 8.6029-0.0976 0.0985-0.2539 0.0986-0.3518-9e-4 -1.965-1.996-7.4081-7.5252-8.4781-8.6133z" fill="#fff" fill-opacity=".8" stroke="#2F3655" stroke-width="1.5"/>
</svg>
