<?xml version="1.0" encoding="UTF-8"?>
<svg viewBox="0 0 173 28" xmlns="http://www.w3.org/2000/svg">
<path d="m131.48 22.176c3.134 0 5.633-0.5042 8.071-1.6066v-4.5592c0-0.0897-0.094-0.1452-0.176-0.1025-2.524 1.3203-4.834 1.8929-7.895 1.8929-3.705 0-5.602-1.7647-5.602-5.1659s1.902-5.1659 5.602-5.1659c3.065 0 5.371 0.57256 7.895 1.8929 0.082 0.04273 0.176-0.01282 0.176-0.10255v-4.5591c-2.438-1.1024-4.937-1.6066-8.071-1.6066-6.71 0-10.569 3.4653-10.569 9.5456 0 6.0802 3.859 9.5455 10.569 9.5455v-0.0085z" fill="#f50"/>
<path d="m118.66 12.942c0-6.8366-4.207-9.8276-10.256-9.8276-6.581 0-10.569 3.5892-10.569 9.4516 0 7.2168 4.4951 9.6096 11.016 9.6096 3.958 0 7.092-0.6323 9.242-1.4784v-4.3711c0-0.0897-0.094-0.1453-0.171-0.1068-1.559 0.7734-5.105 1.7049-9.007 1.7049-3.426 0-5.585-1.1067-6.066-3.8114h15.554c0.098 0 0.18-0.0727 0.197-0.1667 0.047-0.329 0.069-0.6751 0.069-0.9998l-9e-3 -0.0043zm-10.256-5.7342c3.065 0 4.757 1.3673 5.384 3.3713h-10.853c0.532-2.162 2.185-3.3713 5.465-3.3713" fill="#f50"/>
<path d="m86.593 3.0808c-3.3056 0-5.5594 1.2861-6.9632 3.1918-0.0343 0.047-0.1116 0.02564-0.1116-0.03418l-0.0773-2.6534h-4.7137v24.415h4.8425v-8.9303c0-0.0598 0.073-0.0854 0.1116-0.0342 1.4038 1.8758 3.6448 3.1406 6.916 3.1406 5.6023 0 9.0839-3.9994 9.0839-9.5456 0-5.5461-3.4816-9.5455-9.0839-9.5455m-1.4553 14.711c-3.2627 0-5.5723-2.0467-5.5723-5.1659 0-3.1191 2.3096-5.1658 5.5723-5.1658 3.5116 0 5.4435 1.9826 5.4435 5.1658 0 3.1833-1.9319 5.1659-5.4435 5.1659z" fill="#f50"/>
<path d="m59.307 21.702h4.8424v-13.733h8.1009v-4.3797h-21.048v4.3797h8.1052v13.733z" fill="#0A1E78"/>
<path d="m33.661 13.626v-10.041h-4.8725v18.407c0 0.2606 0.2962 0.4102 0.5066 0.2564l14.622-10.605v10.058h4.8725v-18.407c0-0.26064-0.2962-0.41019-0.5065-0.25637l-14.622 10.584v0.0042z" fill="#0A1E78"/>
<path d="m2.344 21.92c-1.3523 0-2.344-0.0598-2.344-0.0598v-4.354h0.78561c0.91441 0 1.6056-0.2179 2.0606-0.6538 0.45935-0.4358 0.79849-1.1451 1.0174-2.1321 0.21894-0.9828 0.39066-2.4612 0.51516-4.431 0.08157-1.3886 0.16743-3.6148 0.24899-6.6827 0.02147-0.95285 0.05152-2.1578 0.09445-3.6063h19.533v21.702h-5.3748v-17.536h-9.1312c-0.02146 0.29056-0.07298 1.44-0.15454 3.4525-0.04293 1.41-0.08157 2.3031-0.1245 2.6748-0.18889 3.0081-0.48081 5.3069-0.87576 6.9007-0.39496 1.598-1.0732 2.7816-2.0306 3.5592-0.95733 0.7777-2.3654 1.1665-4.2157 1.1665h-0.00429z" fill="#0A1E78"/>
<path d="m150.47 3.572c-0.137 0-0.176 0.08546-0.077 0.17946 0.532 0.53411 0.867 1.269 0.867 2.0809s-0.33 1.5468-0.863 2.0766c-0.103 0.10255-0.068 0.18373 0.125 0.18373h11.441c0.648-0.53838 1.064-1.3545 1.064-2.2646s-0.416-1.722-1.064-2.2646h-11.488l-5e-3 0.00854z" fill="#0A1E78"/>
<path d="m150.47 10.375c-0.137 0-0.176 0.0854-0.077 0.1794 0.532 0.5341 0.867 1.2691 0.867 2.0809s-0.33 1.5468-0.863 2.0766c-0.103 0.1026-0.068 0.1837 0.125 0.1837h6.98c0.648-0.5383 1.065-1.3545 1.065-2.2646s-0.417-1.7219-1.065-2.2646h-7.027l-5e-3 0.0086z" fill="#0A1E78"/>
<path d="m150.47 17.177c-0.146 0-0.181 0.0812-0.073 0.1838 0.532 0.5341 0.863 1.2647 0.863 2.0808 0 0.8162-0.331 1.5468-0.863 2.0767-0.103 0.1025-0.069 0.1837 0.124 0.1837h2.524c0.649-0.5384 1.065-1.3545 1.065-2.2646s-0.416-1.722-1.065-2.2646h-2.571l-4e-3 0.0042z" fill="#0A1E78"/>
<path d="m171.17 3.5723h-3.069c0.648 0.54265 1.064 1.3502 1.064 2.2646s-0.416 1.722-1.064 2.2646h3.069c0.648-0.53838 1.065-1.3502 1.065-2.2646s-0.417-1.722-1.065-2.2646z" fill="#f50"/>
<path d="m168.1 3.5723h-3.07c0.649 0.54265 1.065 1.3502 1.065 2.2646s-0.416 1.722-1.065 2.2646h3.07c0.648-0.53838 1.064-1.3502 1.064-2.2646s-0.416-1.722-1.064-2.2646z" fill="#6262D9"/>
<path d="m171.17 10.374h-7.529c0.648 0.5427 1.064 1.3502 1.064 2.2646s-0.416 1.722-1.064 2.2646h7.529c0.649-0.5383 1.065-1.3502 1.065-2.2646s-0.416-1.7219-1.065-2.2646z" fill="#f50"/>
<path d="m163.64 10.374h-3.07c0.648 0.5427 1.065 1.3502 1.065 2.2646s-0.417 1.722-1.065 2.2646h3.07c0.648-0.5383 1.064-1.3502 1.064-2.2646s-0.416-1.7219-1.064-2.2646z" fill="#6262D9"/>
<path d="m165.03 3.5723h-3.069c0.648 0.54265 1.065 1.3502 1.065 2.2646s-0.417 1.722-1.065 2.2646h3.069c0.649-0.53838 1.065-1.3502 1.065-2.2646s-0.416-1.722-1.065-2.2646z" fill="#3D3DC7"/>
<path d="m160.57 10.374h-3.069c0.648 0.5427 1.065 1.3502 1.065 2.2646s-0.417 1.722-1.065 2.2646h3.069c0.649-0.5383 1.065-1.3502 1.065-2.2646s-0.416-1.7219-1.065-2.2646z" fill="#3D3DC7"/>
<path d="m171.17 17.177h-11.985c0.648 0.5426 1.064 1.3502 1.064 2.2646s-0.416 1.7219-1.064 2.2646h11.985c0.649-0.5384 1.065-1.3502 1.065-2.2646s-0.416-1.722-1.065-2.2646z" fill="#f50"/>
<path d="m159.18 17.177h-3.07c0.648 0.5426 1.065 1.3502 1.065 2.2646s-0.417 1.7219-1.065 2.2646h3.07c0.648-0.5384 1.064-1.3502 1.064-2.2646s-0.416-1.722-1.064-2.2646z" fill="#6262D9"/>
<path d="m156.11 17.177h-3.069c0.648 0.5426 1.065 1.3502 1.065 2.2646s-0.417 1.7219-1.065 2.2646h3.069c0.649-0.5384 1.065-1.3502 1.065-2.2646s-0.416-1.722-1.065-2.2646z" fill="#3D3DC7"/>
</svg>
