<svg width="32" height="32" viewBox="0 0 32 32" fill="none" xmlns="http://www.w3.org/2000/svg">
<rect width="32" height="32" rx="8" fill="#E7792B"/>
<path fill-rule="evenodd" clip-rule="evenodd" d="M18.2001 11.1617C18.2001 9.983 17.2074 9.0247 15.9863 9.0247C14.7669 9.0247 13.7726 9.983 13.7726 11.1617C13.7726 12.3388 14.7669 13.2977 15.9863 13.2977C17.2074 13.2977 18.2001 12.3388 18.2001 11.1617ZM21.3329 11.1617C21.3329 14.007 18.9355 16.3212 15.9863 16.3212C13.0378 16.3212 10.6398 14.007 10.6398 11.1617C10.6398 8.3151 13.0378 6 15.9863 6C18.9355 6 21.3329 8.3151 21.3329 11.1617ZM21.2679 19.2925C20.3011 19.8786 19.2515 20.2942 18.1632 20.5336L21.1524 23.419C21.7647 24.0088 21.7647 24.9667 21.1524 25.5572C20.5407 26.1476 19.549 26.1476 18.938 25.5572L15.9994 22.7217L13.0633 25.5572C12.7572 25.8521 12.3563 26 11.9552 26C11.5546 26 11.1541 25.8521 10.848 25.5572C10.2363 24.9667 10.2363 24.0095 10.8473 23.419L13.8365 20.5336C12.7479 20.2942 11.6983 19.878 10.7315 19.2925C9.99993 18.8472 9.78013 17.914 10.2411 17.2071C10.7011 16.4997 11.6676 16.2869 12.4005 16.7319C14.5892 18.0607 17.4089 18.0613 19.5989 16.7319C20.3318 16.2869 21.2986 16.4997 21.7589 17.2071C22.2202 17.9134 21.9995 18.8472 21.2679 19.2925Z" fill="white"/>
</svg>
