<svg width="20" height="16" viewBox="0 0 20 16" fill="none" xmlns="http://www.w3.org/2000/svg">
<path d="M0 0H14.7639C15.5215 0 16.214 0.428005 16.5528 1.10557L19.5528 7.10557C19.8343 7.66863 19.8343 8.33137 19.5528 8.89443L16.5528 14.8944C16.214 15.572 15.5215 16 14.7639 16H0V0Z" fill="#FF5E1A"/>
<path fill-rule="evenodd" clip-rule="evenodd" d="M11.3 3.6C11.5209 3.76568 11.5657 4.07908 11.4 4.3L5.40003 12.3C5.23434 12.5209 4.92094 12.5657 4.70003 12.4C4.47912 12.2343 4.43434 11.9209 4.60003 11.7L10.6 3.7C10.7657 3.47909 11.0791 3.43431 11.3 3.6Z" fill="white"/>
<path fill-rule="evenodd" clip-rule="evenodd" d="M11 12C11.5523 12 12 11.5523 12 11C12 10.4477 11.5523 10 11 10C10.4477 10 10 10.4477 10 11C10 11.5523 10.4477 12 11 12ZM11 13C12.1046 13 13 12.1046 13 11C13 9.89543 12.1046 9 11 9C9.89543 9 9 9.89543 9 11C9 12.1046 9.89543 13 11 13Z" fill="white"/>
<path fill-rule="evenodd" clip-rule="evenodd" d="M5 6C5.55228 6 6 5.55228 6 5C6 4.44772 5.55228 4 5 4C4.44772 4 4 4.44772 4 5C4 5.55228 4.44772 6 5 6ZM5 7C6.10457 7 7 6.10457 7 5C7 3.89543 6.10457 3 5 3C3.89543 3 3 3.89543 3 5C3 6.10457 3.89543 7 5 7Z" fill="white"/>
</svg>
