<svg width="60" height="60" viewBox="0 0 60 60" fill="none" xmlns="http://www.w3.org/2000/svg">
<path d="M26.9308 2.12883H24.802V1.06442C24.802 0.461247 25.2632 0 25.8664 0C26.4696 0 26.9308 0.461247 26.9308 1.06442V2.12883Z" fill="#2F3655"/>
<path d="M26.9308 2.12883H24.802V1.06442C24.802 0.461247 25.2632 0 25.8664 0C26.4696 0 26.9308 0.461247 26.9308 1.06442V2.12883Z" fill="black" fill-opacity="0.2"/>
<path d="M31.0644 2.12883H30C29.3968 2.12883 28.9355 1.66759 28.9355 1.06442C28.9355 0.461247 29.3968 0 30 0H31.0644V2.12883Z" fill="#2F3655"/>
<path d="M31.0644 2.12883H30C29.3968 2.12883 28.9355 1.66759 28.9355 1.06442C28.9355 0.461247 29.3968 0 30 0H31.0644V2.12883Z" fill="black" fill-opacity="0.2"/>
<path d="M33.1313 0H31.0024V2.12883H33.1313V0Z" fill="#2F3655"/>
<path d="M33.1313 0H31.0024V2.12883H33.1313V0Z" fill="black" fill-opacity="0.2"/>
<path d="M34.1338 2.12883H33.0693V0H34.1338C34.7369 0 35.1982 0.461247 35.1982 1.06442C35.1982 1.66759 34.7369 2.12883 34.1338 2.12883Z" fill="#2F3655"/>
<path d="M34.1338 2.12883H33.0693V0H34.1338C34.7369 0 35.1982 0.461247 35.1982 1.06442C35.1982 1.66759 34.7369 2.12883 34.1338 2.12883Z" fill="black" fill-opacity="0.2"/>
<path d="M41.3986 2.12883H40.3342C39.731 2.12883 39.2698 1.66759 39.2698 1.06442C39.2698 0.461247 39.731 0 40.3342 0H41.3986V2.12883Z" fill="#2F3655"/>
<path d="M41.3986 2.12883H40.3342C39.731 2.12883 39.2698 1.66759 39.2698 1.06442C39.2698 0.461247 39.731 0 40.3342 0H41.3986V2.12883Z" fill="black" fill-opacity="0.2"/>
<path d="M42.4011 2.12883H41.3367V0H42.4011C43.0043 0 43.4655 0.461247 43.4655 1.06442C43.4655 1.66759 43.0043 2.12883 42.4011 2.12883Z" fill="#2F3655"/>
<path d="M42.4011 2.12883H41.3367V0H42.4011C43.0043 0 43.4655 0.461247 43.4655 1.06442C43.4655 1.66759 43.0043 2.12883 42.4011 2.12883Z" fill="black" fill-opacity="0.2"/>
<path d="M20.7304 4.19567H18.6016V3.13125C18.6016 2.52808 19.0628 2.06683 19.666 2.06683C20.2691 2.06683 20.7304 2.52808 20.7304 3.13125V4.19567Z" fill="#2F3655"/>
<path d="M20.7304 4.19567H18.6016V3.13125C18.6016 2.52808 19.0628 2.06683 19.666 2.06683C20.2691 2.06683 20.7304 2.52808 20.7304 3.13125V4.19567Z" fill="black" fill-opacity="0.2"/>
<path d="M24.8639 4.19567H22.7351V3.13125C22.7351 2.52808 23.1964 2.06683 23.7995 2.06683H24.8639V4.19567Z" fill="#2F3655"/>
<path d="M24.8639 4.19567H22.7351V3.13125C22.7351 2.52808 23.1964 2.06683 23.7995 2.06683H24.8639V4.19567Z" fill="black" fill-opacity="0.2"/>
<path d="M25.8664 4.19567H24.802V2.06683H26.9308V3.13125C26.9308 3.73442 26.4696 4.19567 25.8664 4.19567Z" fill="#2F3655"/>
<path d="M25.8664 4.19567H24.802V2.06683H26.9308V3.13125C26.9308 3.73442 26.4696 4.19567 25.8664 4.19567Z" fill="black" fill-opacity="0.2"/>
<path d="M18.6635 6.2625H16.5347V5.19808C16.5347 4.59491 16.9959 4.13367 17.5991 4.13367H18.6635V6.2625Z" fill="#2F3655"/>
<path d="M18.6635 6.2625H16.5347V5.19808C16.5347 4.59491 16.9959 4.13367 17.5991 4.13367H18.6635V6.2625Z" fill="black" fill-opacity="0.2"/>
<path d="M19.666 6.2625H18.6016V4.13367H20.7304V5.19808C20.7304 5.80125 20.2691 6.2625 19.666 6.2625Z" fill="#2F3655"/>
<path d="M19.666 6.2625H18.6016V4.13367H20.7304V5.19808C20.7304 5.80125 20.2691 6.2625 19.666 6.2625Z" fill="black" fill-opacity="0.2"/>
<path d="M24.8639 4.13367H22.7351V6.2625H24.8639V4.13367Z" fill="#2F3655"/>
<path d="M24.8639 4.13367H22.7351V6.2625H24.8639V4.13367Z" fill="black" fill-opacity="0.2"/>
<path d="M28.9975 6.2625H26.8687V5.19808C26.8687 4.59491 27.3299 4.13367 27.9331 4.13367C28.5362 4.13367 28.9975 4.59491 28.9975 5.19808V6.2625Z" fill="#2F3655"/>
<path d="M28.9975 6.2625H26.8687V5.19808C26.8687 4.59491 27.3299 4.13367 27.9331 4.13367C28.5362 4.13367 28.9975 4.59491 28.9975 5.19808V6.2625Z" fill="black" fill-opacity="0.2"/>
<path d="M33.1313 6.2625H31.0024V5.19808C31.0024 4.59491 31.4637 4.13367 32.0669 4.13367H33.1313V6.2625Z" fill="#2F3655"/>
<path d="M33.1313 6.2625H31.0024V5.19808C31.0024 4.59491 31.4637 4.13367 32.0669 4.13367H33.1313V6.2625Z" fill="black" fill-opacity="0.2"/>
<path d="M34.1338 6.2625H33.0693V4.13367H34.1338C34.7369 4.13367 35.1982 4.59491 35.1982 5.19808C35.1982 5.80125 34.7369 6.2625 34.1338 6.2625Z" fill="#2F3655"/>
<path d="M34.1338 6.2625H33.0693V4.13367H34.1338C34.7369 4.13367 35.1982 4.59491 35.1982 5.19808C35.1982 5.80125 34.7369 6.2625 34.1338 6.2625Z" fill="black" fill-opacity="0.2"/>
<path d="M40.3342 6.2625C40.9221 6.2625 41.3986 5.78594 41.3986 5.19808C41.3986 4.61022 40.9221 4.13367 40.3342 4.13367C39.7463 4.13367 39.2698 4.61022 39.2698 5.19808C39.2698 5.78594 39.7463 6.2625 40.3342 6.2625Z" fill="#2F3655"/>
<path d="M40.3342 6.2625C40.9221 6.2625 41.3986 5.78594 41.3986 5.19808C41.3986 4.61022 40.9221 4.13367 40.3342 4.13367C39.7463 4.13367 39.2698 4.61022 39.2698 5.19808C39.2698 5.78594 39.7463 6.2625 40.3342 6.2625Z" fill="black" fill-opacity="0.2"/>
<path d="M18.6635 6.2005H16.5347V8.32933H18.6635V6.2005Z" fill="#2F3655"/>
<path d="M18.6635 6.2005H16.5347V8.32933H18.6635V6.2005Z" fill="black" fill-opacity="0.2"/>
<path d="M24.8639 8.32933H23.7995C23.1964 8.32933 22.7351 7.86809 22.7351 7.26492V6.2005H24.8639V8.32933Z" fill="#2F3655"/>
<path d="M24.8639 8.32933H23.7995C23.1964 8.32933 22.7351 7.86809 22.7351 7.26492V6.2005H24.8639V8.32933Z" fill="black" fill-opacity="0.2"/>
<path d="M26.9308 6.2005H24.802V8.32933H26.9308V6.2005Z" fill="#2F3655"/>
<path d="M26.9308 6.2005H24.802V8.32933H26.9308V6.2005Z" fill="black" fill-opacity="0.2"/>
<path d="M28.9975 6.2005H26.8687V8.32933H28.9975V6.2005Z" fill="#2F3655"/>
<path d="M28.9975 6.2005H26.8687V8.32933H28.9975V6.2005Z" fill="black" fill-opacity="0.2"/>
<path d="M31.0644 6.2005H28.9355V8.32933H31.0644V6.2005Z" fill="#2F3655"/>
<path d="M31.0644 6.2005H28.9355V8.32933H31.0644V6.2005Z" fill="black" fill-opacity="0.2"/>
<path d="M33.1313 6.2005H31.0024V8.32933H33.1313V6.2005Z" fill="#2F3655"/>
<path d="M33.1313 6.2005H31.0024V8.32933H33.1313V6.2005Z" fill="black" fill-opacity="0.2"/>
<path d="M37.2648 8.32933H36.2004C35.5972 8.32933 35.136 7.86809 35.136 7.26492C35.136 6.66175 35.5972 6.2005 36.2004 6.2005H37.2648V8.32933Z" fill="#2F3655"/>
<path d="M37.2648 8.32933H36.2004C35.5972 8.32933 35.136 7.86809 35.136 7.26492C35.136 6.66175 35.5972 6.2005 36.2004 6.2005H37.2648V8.32933Z" fill="black" fill-opacity="0.2"/>
<path d="M39.3317 8.32933H37.2029V6.2005H38.2673C38.8705 6.2005 39.3317 6.66175 39.3317 7.26492V8.32933Z" fill="#2F3655"/>
<path d="M39.3317 8.32933H37.2029V6.2005H38.2673C38.8705 6.2005 39.3317 6.66175 39.3317 7.26492V8.32933Z" fill="black" fill-opacity="0.2"/>
<path d="M43.4655 8.32933H41.3367V7.26492C41.3367 6.66175 41.7979 6.2005 42.4011 6.2005C43.0043 6.2005 43.4655 6.66175 43.4655 7.26492V8.32933Z" fill="#2F3655"/>
<path d="M43.4655 8.32933H41.3367V7.26492C41.3367 6.66175 41.7979 6.2005 42.4011 6.2005C43.0043 6.2005 43.4655 6.66175 43.4655 7.26492V8.32933Z" fill="black" fill-opacity="0.2"/>
<path d="M18.6635 8.26733H16.5347V10.3962H18.6635V8.26733Z" fill="#2F3655"/>
<path d="M18.6635 8.26733H16.5347V10.3962H18.6635V8.26733Z" fill="black" fill-opacity="0.2"/>
<path d="M19.666 10.3962H18.6016V8.26733H19.666C20.2691 8.26733 20.7304 8.72858 20.7304 9.33175C20.7304 9.93492 20.2691 10.3962 19.666 10.3962Z" fill="#2F3655"/>
<path d="M19.666 10.3962H18.6016V8.26733H19.666C20.2691 8.26733 20.7304 8.72858 20.7304 9.33175C20.7304 9.93492 20.2691 10.3962 19.666 10.3962Z" fill="black" fill-opacity="0.2"/>
<path d="M26.9308 8.26733H24.802V10.3962H26.9308V8.26733Z" fill="#2F3655"/>
<path d="M26.9308 8.26733H24.802V10.3962H26.9308V8.26733Z" fill="black" fill-opacity="0.2"/>
<path d="M27.9331 10.3962H26.8687V8.26733H28.9975V9.33175C28.9975 9.93492 28.5362 10.3962 27.9331 10.3962Z" fill="#2F3655"/>
<path d="M27.9331 10.3962H26.8687V8.26733H28.9975V9.33175C28.9975 9.93492 28.5362 10.3962 27.9331 10.3962Z" fill="black" fill-opacity="0.2"/>
<path d="M33.1313 10.3962H32.0669C31.4637 10.3962 31.0024 9.93492 31.0024 9.33175V8.26733H33.1313V10.3962Z" fill="#2F3655"/>
<path d="M33.1313 10.3962H32.0669C31.4637 10.3962 31.0024 9.93492 31.0024 9.33175V8.26733H33.1313V10.3962Z" fill="black" fill-opacity="0.2"/>
<path d="M34.1338 10.3962H33.0693V8.26733H34.1338C34.7369 8.26733 35.1982 8.72858 35.1982 9.33175C35.1982 9.93492 34.7369 10.3962 34.1338 10.3962Z" fill="#2F3655"/>
<path d="M34.1338 10.3962H33.0693V8.26733H34.1338C34.7369 8.26733 35.1982 8.72858 35.1982 9.33175C35.1982 9.93492 34.7369 10.3962 34.1338 10.3962Z" fill="black" fill-opacity="0.2"/>
<path d="M39.3317 8.26733H37.2029V10.3962H39.3317V8.26733Z" fill="#2F3655"/>
<path d="M39.3317 8.26733H37.2029V10.3962H39.3317V8.26733Z" fill="black" fill-opacity="0.2"/>
<path d="M41.3986 8.26733H39.2698V10.3962H41.3986V8.26733Z" fill="#2F3655"/>
<path d="M41.3986 8.26733H39.2698V10.3962H41.3986V8.26733Z" fill="black" fill-opacity="0.2"/>
<path d="M42.4011 10.3962H41.3367V8.26733H43.4655V9.33175C43.4655 9.93492 43.0043 10.3962 42.4011 10.3962Z" fill="#2F3655"/>
<path d="M42.4011 10.3962H41.3367V8.26733H43.4655V9.33175C43.4655 9.93492 43.0043 10.3962 42.4011 10.3962Z" fill="black" fill-opacity="0.2"/>
<path d="M18.6635 10.3342H16.5347V12.463H18.6635V10.3342Z" fill="#2F3655"/>
<path d="M18.6635 10.3342H16.5347V12.463H18.6635V10.3342Z" fill="black" fill-opacity="0.2"/>
<path d="M22.797 12.463H20.6682V11.3986C20.6682 10.7954 21.1295 10.3342 21.7326 10.3342C22.3358 10.3342 22.797 10.7954 22.797 11.3986V12.463Z" fill="#2F3655"/>
<path d="M22.797 12.463H20.6682V11.3986C20.6682 10.7954 21.1295 10.3342 21.7326 10.3342C22.3358 10.3342 22.797 10.7954 22.797 11.3986V12.463Z" fill="black" fill-opacity="0.2"/>
<path d="M26.9308 10.3342H24.802V12.463H26.9308V10.3342Z" fill="#2F3655"/>
<path d="M26.9308 10.3342H24.802V12.463H26.9308V10.3342Z" fill="black" fill-opacity="0.2"/>
<path d="M31.0644 12.463H28.9355V11.3986C28.9355 10.7954 29.3968 10.3342 30 10.3342C30.6031 10.3342 31.0644 10.7954 31.0644 11.3986V12.463Z" fill="#2F3655"/>
<path d="M31.0644 12.463H28.9355V11.3986C28.9355 10.7954 29.3968 10.3342 30 10.3342C30.6031 10.3342 31.0644 10.7954 31.0644 11.3986V12.463Z" fill="black" fill-opacity="0.2"/>
<path d="M39.3317 10.3342H37.2029V12.463H39.3317V10.3342Z" fill="#2F3655"/>
<path d="M39.3317 10.3342H37.2029V12.463H39.3317V10.3342Z" fill="black" fill-opacity="0.2"/>
<path d="M18.6635 12.4009H16.5347V14.5298H18.6635V12.4009Z" fill="#2F3655"/>
<path d="M18.6635 12.4009H16.5347V14.5298H18.6635V12.4009Z" fill="black" fill-opacity="0.2"/>
<path d="M22.797 12.4009H20.6682V14.5298H22.797V12.4009Z" fill="#2F3655"/>
<path d="M22.797 12.4009H20.6682V14.5298H22.797V12.4009Z" fill="black" fill-opacity="0.2"/>
<path d="M25.8664 14.5298C25.2632 14.5298 24.802 14.0685 24.802 13.4654V12.4009H26.9308V13.4654C26.9308 14.0685 26.4696 14.5298 25.8664 14.5298Z" fill="#2F3655"/>
<path d="M25.8664 14.5298C25.2632 14.5298 24.802 14.0685 24.802 13.4654V12.4009H26.9308V13.4654C26.9308 14.0685 26.4696 14.5298 25.8664 14.5298Z" fill="black" fill-opacity="0.2"/>
<path d="M30 14.5298C29.3968 14.5298 28.9355 14.0685 28.9355 13.4654V12.4009H31.0644V13.4654C31.0644 14.0685 30.6031 14.5298 30 14.5298Z" fill="#2F3655"/>
<path d="M30 14.5298C29.3968 14.5298 28.9355 14.0685 28.9355 13.4654V12.4009H31.0644V13.4654C31.0644 14.0685 30.6031 14.5298 30 14.5298Z" fill="black" fill-opacity="0.2"/>
<path d="M35.1982 14.5298H33.0693V13.4654C33.0693 12.8622 33.5306 12.4009 34.1338 12.4009C34.7369 12.4009 35.1982 12.8622 35.1982 13.4654V14.5298Z" fill="#2F3655"/>
<path d="M35.1982 14.5298H33.0693V13.4654C33.0693 12.8622 33.5306 12.4009 34.1338 12.4009C34.7369 12.4009 35.1982 12.8622 35.1982 13.4654V14.5298Z" fill="black" fill-opacity="0.2"/>
<path d="M39.3317 12.4009H37.2029V14.5298H39.3317V12.4009Z" fill="#2F3655"/>
<path d="M39.3317 12.4009H37.2029V14.5298H39.3317V12.4009Z" fill="black" fill-opacity="0.2"/>
<path d="M43.4655 14.5298H41.3367V13.4654C41.3367 12.8622 41.7979 12.4009 42.4011 12.4009C43.0043 12.4009 43.4655 12.8622 43.4655 13.4654V14.5298Z" fill="#2F3655"/>
<path d="M43.4655 14.5298H41.3367V13.4654C41.3367 12.8622 41.7979 12.4009 42.4011 12.4009C43.0043 12.4009 43.4655 12.8622 43.4655 13.4654V14.5298Z" fill="black" fill-opacity="0.2"/>
<path d="M18.6635 16.5966H17.5991C16.9959 16.5966 16.5347 16.1354 16.5347 15.5322V14.4678H18.6635V16.5966Z" fill="#2F3655"/>
<path d="M18.6635 16.5966H17.5991C16.9959 16.5966 16.5347 16.1354 16.5347 15.5322V14.4678H18.6635V16.5966Z" fill="black" fill-opacity="0.2"/>
<path d="M20.7304 14.4678H18.6016V16.5966H20.7304V14.4678Z" fill="#2F3655"/>
<path d="M20.7304 14.4678H18.6016V16.5966H20.7304V14.4678Z" fill="black" fill-opacity="0.2"/>
<path d="M22.797 14.4678H20.6682V16.5966H22.797V14.4678Z" fill="#2F3655"/>
<path d="M22.797 14.4678H20.6682V16.5966H22.797V14.4678Z" fill="black" fill-opacity="0.2"/>
<path d="M23.7995 16.5966H22.7351V14.4678H23.7995C24.4027 14.4678 24.8639 14.929 24.8639 15.5322C24.8639 16.1354 24.4027 16.5966 23.7995 16.5966Z" fill="#2F3655"/>
<path d="M23.7995 16.5966H22.7351V14.4678H23.7995C24.4027 14.4678 24.8639 14.929 24.8639 15.5322C24.8639 16.1354 24.4027 16.5966 23.7995 16.5966Z" fill="black" fill-opacity="0.2"/>
<path d="M28.9975 16.5966H26.8687V15.5322C26.8687 14.929 27.3299 14.4678 27.9331 14.4678C28.5362 14.4678 28.9975 14.929 28.9975 15.5322V16.5966Z" fill="#2F3655"/>
<path d="M28.9975 16.5966H26.8687V15.5322C26.8687 14.929 27.3299 14.4678 27.9331 14.4678C28.5362 14.4678 28.9975 14.929 28.9975 15.5322V16.5966Z" fill="black" fill-opacity="0.2"/>
<path d="M34.1338 16.5966C33.5306 16.5966 33.0693 16.1354 33.0693 15.5322V14.4678H35.1982V15.5322C35.1982 16.1354 34.7369 16.5966 34.1338 16.5966Z" fill="#2F3655"/>
<path d="M34.1338 16.5966C33.5306 16.5966 33.0693 16.1354 33.0693 15.5322V14.4678H35.1982V15.5322C35.1982 16.1354 34.7369 16.5966 34.1338 16.5966Z" fill="black" fill-opacity="0.2"/>
<path d="M39.3317 14.4678H37.2029V16.5966H39.3317V14.4678Z" fill="#2F3655"/>
<path d="M39.3317 14.4678H37.2029V16.5966H39.3317V14.4678Z" fill="black" fill-opacity="0.2"/>
<path d="M41.3986 14.4678H39.2698V16.5966H41.3986V14.4678Z" fill="#2F3655"/>
<path d="M41.3986 14.4678H39.2698V16.5966H41.3986V14.4678Z" fill="black" fill-opacity="0.2"/>
<path d="M42.4011 16.5966H41.3367V14.4678H43.4655V15.5322C43.4655 16.1354 43.0043 16.5966 42.4011 16.5966Z" fill="#2F3655"/>
<path d="M42.4011 16.5966H41.3367V14.4678H43.4655V15.5322C43.4655 16.1354 43.0043 16.5966 42.4011 16.5966Z" fill="black" fill-opacity="0.2"/>
<path d="M1.06442 18.6634C1.65228 18.6634 2.12883 18.1869 2.12883 17.599C2.12883 17.0112 1.65228 16.5346 1.06442 16.5346C0.476555 16.5346 0 17.0112 0 17.599C0 18.1869 0.476555 18.6634 1.06442 18.6634Z" fill="#2F3655"/>
<path d="M1.06442 18.6634C1.65228 18.6634 2.12883 18.1869 2.12883 17.599C2.12883 17.0112 1.65228 16.5346 1.06442 16.5346C0.476555 16.5346 0 17.0112 0 17.599C0 18.1869 0.476555 18.6634 1.06442 18.6634Z" fill="black" fill-opacity="0.2"/>
<path d="M6.26238 18.6634H4.13354V17.599C4.13354 16.9959 4.59479 16.5346 5.19796 16.5346H6.26238V18.6634Z" fill="#2F3655"/>
<path d="M6.26238 18.6634H4.13354V17.599C4.13354 16.9959 4.59479 16.5346 5.19796 16.5346H6.26238V18.6634Z" fill="black" fill-opacity="0.2"/>
<path d="M8.32927 16.5346H6.20044V18.6634H8.32927V16.5346Z" fill="#2F3655"/>
<path d="M8.32927 16.5346H6.20044V18.6634H8.32927V16.5346Z" fill="black" fill-opacity="0.2"/>
<path d="M10.3962 16.5346H8.26733V18.6634H10.3962V16.5346Z" fill="#2F3655"/>
<path d="M10.3962 16.5346H8.26733V18.6634H10.3962V16.5346Z" fill="black" fill-opacity="0.2"/>
<path d="M12.4631 16.5346H10.3342V18.6634H12.4631V16.5346Z" fill="#2F3655"/>
<path d="M12.4631 16.5346H10.3342V18.6634H12.4631V16.5346Z" fill="black" fill-opacity="0.2"/>
<path d="M13.4653 18.6634H12.4009V16.5346H13.4653C14.0685 16.5346 14.5297 16.9959 14.5297 17.599C14.5297 18.2022 14.0685 18.6634 13.4653 18.6634Z" fill="#2F3655"/>
<path d="M13.4653 18.6634H12.4009V16.5346H13.4653C14.0685 16.5346 14.5297 16.9959 14.5297 17.599C14.5297 18.2022 14.0685 18.6634 13.4653 18.6634Z" fill="black" fill-opacity="0.2"/>
<path d="M26.9308 18.6634H24.802V17.599C24.802 16.9959 25.2632 16.5346 25.8664 16.5346H26.9308V18.6634Z" fill="#2F3655"/>
<path d="M26.9308 18.6634H24.802V17.599C24.802 16.9959 25.2632 16.5346 25.8664 16.5346H26.9308V18.6634Z" fill="black" fill-opacity="0.2"/>
<path d="M28.9975 16.5346H26.8687V18.6634H28.9975V16.5346Z" fill="#2F3655"/>
<path d="M28.9975 16.5346H26.8687V18.6634H28.9975V16.5346Z" fill="black" fill-opacity="0.2"/>
<path d="M31.0644 18.6634H28.9355V16.5346H30C30.6031 16.5346 31.0644 16.9959 31.0644 17.599V18.6634Z" fill="#2F3655"/>
<path d="M31.0644 18.6634H28.9355V16.5346H30C30.6031 16.5346 31.0644 16.9959 31.0644 17.599V18.6634Z" fill="black" fill-opacity="0.2"/>
<path d="M39.3317 16.5346H37.2029V18.6634H39.3317V16.5346Z" fill="#2F3655"/>
<path d="M39.3317 16.5346H37.2029V18.6634H39.3317V16.5346Z" fill="black" fill-opacity="0.2"/>
<path d="M41.3986 16.5346H39.2698V18.6634H41.3986V16.5346Z" fill="#2F3655"/>
<path d="M41.3986 16.5346H39.2698V18.6634H41.3986V16.5346Z" fill="black" fill-opacity="0.2"/>
<path d="M47.599 18.6634H45.4702V17.599C45.4702 16.9959 45.9315 16.5346 46.5346 16.5346H47.599V18.6634Z" fill="#2F3655"/>
<path d="M47.599 18.6634H45.4702V17.599C45.4702 16.9959 45.9315 16.5346 46.5346 16.5346H47.599V18.6634Z" fill="black" fill-opacity="0.2"/>
<path d="M49.6659 16.5346H47.5371V18.6634H49.6659V16.5346Z" fill="#2F3655"/>
<path d="M49.6659 16.5346H47.5371V18.6634H49.6659V16.5346Z" fill="black" fill-opacity="0.2"/>
<path d="M51.7326 16.5346H49.6038V18.6634H51.7326V16.5346Z" fill="#2F3655"/>
<path d="M51.7326 16.5346H49.6038V18.6634H51.7326V16.5346Z" fill="black" fill-opacity="0.2"/>
<path d="M53.7995 16.5346H51.6707V18.6634H53.7995V16.5346Z" fill="#2F3655"/>
<path d="M53.7995 16.5346H51.6707V18.6634H53.7995V16.5346Z" fill="black" fill-opacity="0.2"/>
<path d="M54.802 18.6634H53.7375V16.5346H54.802C55.4051 16.5346 55.8664 16.9959 55.8664 17.599C55.8664 18.2022 55.4051 18.6634 54.802 18.6634Z" fill="#2F3655"/>
<path d="M54.802 18.6634H53.7375V16.5346H54.802C55.4051 16.5346 55.8664 16.9959 55.8664 17.599C55.8664 18.2022 55.4051 18.6634 54.802 18.6634Z" fill="black" fill-opacity="0.2"/>
<path d="M4.19573 20.7303H2.06689V19.6659C2.06689 19.0627 2.52814 18.6014 3.13131 18.6014H4.19573V20.7303Z" fill="#2F3655"/>
<path d="M4.19573 20.7303H2.06689V19.6659C2.06689 19.0627 2.52814 18.6014 3.13131 18.6014H4.19573V20.7303Z" fill="black" fill-opacity="0.2"/>
<path d="M5.19796 20.7303H4.13354V18.6014H6.26238V19.6659C6.26238 20.269 5.80113 20.7303 5.19796 20.7303Z" fill="#2F3655"/>
<path d="M5.19796 20.7303H4.13354V18.6014H6.26238V19.6659C6.26238 20.269 5.80113 20.7303 5.19796 20.7303Z" fill="black" fill-opacity="0.2"/>
<path d="M16.5966 20.7303H15.5322C14.929 20.7303 14.4678 20.269 14.4678 19.6659C14.4678 19.0627 14.929 18.6014 15.5322 18.6014H16.5966V20.7303Z" fill="#2F3655"/>
<path d="M16.5966 20.7303H15.5322C14.929 20.7303 14.4678 20.269 14.4678 19.6659C14.4678 19.0627 14.929 18.6014 15.5322 18.6014H16.5966V20.7303Z" fill="black" fill-opacity="0.2"/>
<path d="M18.6635 20.7303H16.5347V18.6014H17.5991C18.2023 18.6014 18.6635 19.0627 18.6635 19.6659V20.7303Z" fill="#2F3655"/>
<path d="M18.6635 20.7303H16.5347V18.6014H17.5991C18.2023 18.6014 18.6635 19.0627 18.6635 19.6659V20.7303Z" fill="black" fill-opacity="0.2"/>
<path d="M24.8639 20.7303H22.7351V19.6659C22.7351 19.0627 23.1964 18.6014 23.7995 18.6014H24.8639V20.7303Z" fill="#2F3655"/>
<path d="M24.8639 20.7303H22.7351V19.6659C22.7351 19.0627 23.1964 18.6014 23.7995 18.6014H24.8639V20.7303Z" fill="black" fill-opacity="0.2"/>
<path d="M26.9308 18.6014H24.802V20.7303H26.9308V18.6014Z" fill="#2F3655"/>
<path d="M26.9308 18.6014H24.802V20.7303H26.9308V18.6014Z" fill="black" fill-opacity="0.2"/>
<path d="M30 20.7303C29.3968 20.7303 28.9355 20.269 28.9355 19.6659V18.6014H31.0644V19.6659C31.0644 20.269 30.6031 20.7303 30 20.7303Z" fill="#2F3655"/>
<path d="M30 20.7303C29.3968 20.7303 28.9355 20.269 28.9355 19.6659V18.6014H31.0644V19.6659C31.0644 20.269 30.6031 20.7303 30 20.7303Z" fill="black" fill-opacity="0.2"/>
<path d="M35.1982 20.7303H34.1338C33.5306 20.7303 33.0693 20.269 33.0693 19.6659C33.0693 19.0627 33.5306 18.6014 34.1338 18.6014H35.1982V20.7303Z" fill="#2F3655"/>
<path d="M35.1982 20.7303H34.1338C33.5306 20.7303 33.0693 20.269 33.0693 19.6659C33.0693 19.0627 33.5306 18.6014 34.1338 18.6014H35.1982V20.7303Z" fill="black" fill-opacity="0.2"/>
<path d="M37.2648 18.6014H35.136V20.7303H37.2648V18.6014Z" fill="#2F3655"/>
<path d="M37.2648 18.6014H35.136V20.7303H37.2648V18.6014Z" fill="black" fill-opacity="0.2"/>
<path d="M39.3317 18.6014H37.2029V20.7303H39.3317V18.6014Z" fill="#2F3655"/>
<path d="M39.3317 18.6014H37.2029V20.7303H39.3317V18.6014Z" fill="black" fill-opacity="0.2"/>
<path d="M40.3342 20.7303H39.2698V18.6014H41.3986V19.6659C41.3986 20.269 40.9374 20.7303 40.3342 20.7303Z" fill="#2F3655"/>
<path d="M40.3342 20.7303H39.2698V18.6014H41.3986V19.6659C41.3986 20.269 40.9374 20.7303 40.3342 20.7303Z" fill="black" fill-opacity="0.2"/>
<path d="M45.5322 20.7303H43.4033V19.6659C43.4033 19.0627 43.8646 18.6014 44.4677 18.6014H45.5322V20.7303Z" fill="#2F3655"/>
<path d="M45.5322 20.7303H43.4033V19.6659C43.4033 19.0627 43.8646 18.6014 44.4677 18.6014H45.5322V20.7303Z" fill="black" fill-opacity="0.2"/>
<path d="M47.599 18.6014H45.4702V20.7303H47.599V18.6014Z" fill="#2F3655"/>
<path d="M47.599 18.6014H45.4702V20.7303H47.599V18.6014Z" fill="black" fill-opacity="0.2"/>
<path d="M49.6659 18.6014H47.5371V20.7303H49.6659V18.6014Z" fill="#2F3655"/>
<path d="M49.6659 18.6014H47.5371V20.7303H49.6659V18.6014Z" fill="black" fill-opacity="0.2"/>
<path d="M50.6682 20.7303H49.6038V18.6014H51.7326V19.6659C51.7326 20.269 51.2713 20.7303 50.6682 20.7303Z" fill="#2F3655"/>
<path d="M50.6682 20.7303H49.6038V18.6014H51.7326V19.6659C51.7326 20.269 51.2713 20.7303 50.6682 20.7303Z" fill="black" fill-opacity="0.2"/>
<path d="M58.9355 20.7303C59.5234 20.7303 59.9999 20.2537 59.9999 19.6659C59.9999 19.078 59.5234 18.6014 58.9355 18.6014C58.3476 18.6014 57.8711 19.078 57.8711 19.6659C57.8711 20.2537 58.3476 20.7303 58.9355 20.7303Z" fill="#2F3655"/>
<path d="M58.9355 20.7303C59.5234 20.7303 59.9999 20.2537 59.9999 19.6659C59.9999 19.078 59.5234 18.6014 58.9355 18.6014C58.3476 18.6014 57.8711 19.078 57.8711 19.6659C57.8711 20.2537 58.3476 20.7303 58.9355 20.7303Z" fill="black" fill-opacity="0.2"/>
<path d="M2.12883 22.7971H0V21.7327C0 21.1295 0.461247 20.6683 1.06442 20.6683H2.12883V22.7971Z" fill="#2F3655"/>
<path d="M2.12883 22.7971H0V21.7327C0 21.1295 0.461247 20.6683 1.06442 20.6683H2.12883V22.7971Z" fill="black" fill-opacity="0.2"/>
<path d="M3.13131 22.7971H2.06689V20.6683H4.19573V21.7327C4.19573 22.3359 3.73448 22.7971 3.13131 22.7971Z" fill="#2F3655"/>
<path d="M3.13131 22.7971H2.06689V20.6683H4.19573V21.7327C4.19573 22.3359 3.73448 22.7971 3.13131 22.7971Z" fill="black" fill-opacity="0.2"/>
<path d="M13.4653 22.7971C14.0532 22.7971 14.5297 22.3206 14.5297 21.7327C14.5297 21.1448 14.0532 20.6683 13.4653 20.6683C12.8774 20.6683 12.4009 21.1448 12.4009 21.7327C12.4009 22.3206 12.8774 22.7971 13.4653 22.7971Z" fill="#2F3655"/>
<path d="M13.4653 22.7971C14.0532 22.7971 14.5297 22.3206 14.5297 21.7327C14.5297 21.1448 14.0532 20.6683 13.4653 20.6683C12.8774 20.6683 12.4009 21.1448 12.4009 21.7327C12.4009 22.3206 12.8774 22.7971 13.4653 22.7971Z" fill="black" fill-opacity="0.2"/>
<path d="M18.6635 22.7971H17.5991C16.9959 22.7971 16.5347 22.3359 16.5347 21.7327V20.6683H18.6635V22.7971Z" fill="#2F3655"/>
<path d="M18.6635 22.7971H17.5991C16.9959 22.7971 16.5347 22.3359 16.5347 21.7327V20.6683H18.6635V22.7971Z" fill="black" fill-opacity="0.2"/>
<path d="M19.666 22.7971H18.6016V20.6683H19.666C20.2691 20.6683 20.7304 21.1295 20.7304 21.7327C20.7304 22.3359 20.2691 22.7971 19.666 22.7971Z" fill="#2F3655"/>
<path d="M19.666 22.7971H18.6016V20.6683H19.666C20.2691 20.6683 20.7304 21.1295 20.7304 21.7327C20.7304 22.3359 20.2691 22.7971 19.666 22.7971Z" fill="black" fill-opacity="0.2"/>
<path d="M24.8639 20.6683H22.7351V22.7971H24.8639V20.6683Z" fill="#2F3655"/>
<path d="M24.8639 20.6683H22.7351V22.7971H24.8639V20.6683Z" fill="black" fill-opacity="0.2"/>
<path d="M26.9308 20.6683H24.802V22.7971H26.9308V20.6683Z" fill="#2F3655"/>
<path d="M26.9308 20.6683H24.802V22.7971H26.9308V20.6683Z" fill="black" fill-opacity="0.2"/>
<path d="M43.4655 22.7971H42.4011C41.7979 22.7971 41.3367 22.3359 41.3367 21.7327C41.3367 21.1295 41.7979 20.6683 42.4011 20.6683H43.4655V22.7971Z" fill="#2F3655"/>
<path d="M43.4655 22.7971H42.4011C41.7979 22.7971 41.3367 22.3359 41.3367 21.7327C41.3367 21.1295 41.7979 20.6683 42.4011 20.6683H43.4655V22.7971Z" fill="black" fill-opacity="0.2"/>
<path d="M45.5322 20.6683H43.4033V22.7971H45.5322V20.6683Z" fill="#2F3655"/>
<path d="M45.5322 20.6683H43.4033V22.7971H45.5322V20.6683Z" fill="black" fill-opacity="0.2"/>
<path d="M47.599 20.6683H45.4702V22.7971H47.599V20.6683Z" fill="#2F3655"/>
<path d="M47.599 20.6683H45.4702V22.7971H47.599V20.6683Z" fill="black" fill-opacity="0.2"/>
<path d="M48.6015 22.7971H47.5371V20.6683H49.6659V21.7327C49.6659 22.3359 49.2047 22.7971 48.6015 22.7971Z" fill="#2F3655"/>
<path d="M48.6015 22.7971H47.5371V20.6683H49.6659V21.7327C49.6659 22.3359 49.2047 22.7971 48.6015 22.7971Z" fill="black" fill-opacity="0.2"/>
<path d="M1.06442 24.8639C0.461247 24.8639 0 24.4027 0 23.7995V22.7351H2.12883V23.7995C2.12883 24.4027 1.66759 24.8639 1.06442 24.8639Z" fill="#2F3655"/>
<path d="M1.06442 24.8639C0.461247 24.8639 0 24.4027 0 23.7995V22.7351H2.12883V23.7995C2.12883 24.4027 1.66759 24.8639 1.06442 24.8639Z" fill="black" fill-opacity="0.2"/>
<path d="M10.3962 24.8639H9.33175C8.72858 24.8639 8.26733 24.4027 8.26733 23.7995C8.26733 23.1964 8.72858 22.7351 9.33175 22.7351H10.3962V24.8639Z" fill="#2F3655"/>
<path d="M10.3962 24.8639H9.33175C8.72858 24.8639 8.26733 24.4027 8.26733 23.7995C8.26733 23.1964 8.72858 22.7351 9.33175 22.7351H10.3962V24.8639Z" fill="black" fill-opacity="0.2"/>
<path d="M11.3986 24.8639H10.3342V22.7351H11.3986C12.0018 22.7351 12.4631 23.1964 12.4631 23.7995C12.4631 24.4027 12.0018 24.8639 11.3986 24.8639Z" fill="#2F3655"/>
<path d="M11.3986 24.8639H10.3342V22.7351H11.3986C12.0018 22.7351 12.4631 23.1964 12.4631 23.7995C12.4631 24.4027 12.0018 24.8639 11.3986 24.8639Z" fill="black" fill-opacity="0.2"/>
<path d="M24.8639 22.7351H22.7351V24.8639H24.8639V22.7351Z" fill="#2F3655"/>
<path d="M24.8639 22.7351H22.7351V24.8639H24.8639V22.7351Z" fill="black" fill-opacity="0.2"/>
<path d="M26.9308 22.7351H24.802V24.8639H26.9308V22.7351Z" fill="#2F3655"/>
<path d="M26.9308 22.7351H24.802V24.8639H26.9308V22.7351Z" fill="black" fill-opacity="0.2"/>
<path d="M28.9975 24.8639H26.8687V22.7351H27.9331C28.5362 22.7351 28.9975 23.1964 28.9975 23.7995V24.8639Z" fill="#2F3655"/>
<path d="M28.9975 24.8639H26.8687V22.7351H27.9331C28.5362 22.7351 28.9975 23.1964 28.9975 23.7995V24.8639Z" fill="black" fill-opacity="0.2"/>
<path d="M35.1982 24.8639H33.0693V23.7995C33.0693 23.1964 33.5306 22.7351 34.1338 22.7351C34.7369 22.7351 35.1982 23.1964 35.1982 23.7995V24.8639Z" fill="#2F3655"/>
<path d="M35.1982 24.8639H33.0693V23.7995C33.0693 23.1964 33.5306 22.7351 34.1338 22.7351C34.7369 22.7351 35.1982 23.1964 35.1982 23.7995V24.8639Z" fill="black" fill-opacity="0.2"/>
<path d="M40.3342 24.8639C40.9221 24.8639 41.3986 24.3874 41.3986 23.7995C41.3986 23.2117 40.9221 22.7351 40.3342 22.7351C39.7463 22.7351 39.2698 23.2117 39.2698 23.7995C39.2698 24.3874 39.7463 24.8639 40.3342 24.8639Z" fill="#2F3655"/>
<path d="M40.3342 24.8639C40.9221 24.8639 41.3986 24.3874 41.3986 23.7995C41.3986 23.2117 40.9221 22.7351 40.3342 22.7351C39.7463 22.7351 39.2698 23.2117 39.2698 23.7995C39.2698 24.3874 39.7463 24.8639 40.3342 24.8639Z" fill="black" fill-opacity="0.2"/>
<path d="M46.5346 24.8639C45.9315 24.8639 45.4702 24.4027 45.4702 23.7995V22.7351H47.599V23.7995C47.599 24.4027 47.1378 24.8639 46.5346 24.8639Z" fill="#2F3655"/>
<path d="M46.5346 24.8639C45.9315 24.8639 45.4702 24.4027 45.4702 23.7995V22.7351H47.599V23.7995C47.599 24.4027 47.1378 24.8639 46.5346 24.8639Z" fill="black" fill-opacity="0.2"/>
<path d="M51.7326 24.8639H50.6682C50.065 24.8639 49.6038 24.4027 49.6038 23.7995C49.6038 23.1964 50.065 22.7351 50.6682 22.7351H51.7326V24.8639Z" fill="#2F3655"/>
<path d="M51.7326 24.8639H50.6682C50.065 24.8639 49.6038 24.4027 49.6038 23.7995C49.6038 23.1964 50.065 22.7351 50.6682 22.7351H51.7326V24.8639Z" fill="black" fill-opacity="0.2"/>
<path d="M53.7995 24.8639H51.6707V22.7351H52.7351C53.3382 22.7351 53.7995 23.1964 53.7995 23.7995V24.8639Z" fill="#2F3655"/>
<path d="M53.7995 24.8639H51.6707V22.7351H52.7351C53.3382 22.7351 53.7995 23.1964 53.7995 23.7995V24.8639Z" fill="black" fill-opacity="0.2"/>
<path d="M56.8689 24.8639C57.4567 24.8639 57.9333 24.3874 57.9333 23.7995C57.9333 23.2117 57.4567 22.7351 56.8689 22.7351C56.281 22.7351 55.8044 23.2117 55.8044 23.7995C55.8044 24.3874 56.281 24.8639 56.8689 24.8639Z" fill="#2F3655"/>
<path d="M56.8689 24.8639C57.4567 24.8639 57.9333 24.3874 57.9333 23.7995C57.9333 23.2117 57.4567 22.7351 56.8689 22.7351C56.281 22.7351 55.8044 23.2117 55.8044 23.7995C55.8044 24.3874 56.281 24.8639 56.8689 24.8639Z" fill="black" fill-opacity="0.2"/>
<path d="M6.26238 26.9308H5.19796C4.59479 26.9308 4.13354 26.4695 4.13354 25.8664C4.13354 25.2632 4.59479 24.8019 5.19796 24.8019H6.26238V26.9308Z" fill="#2F3655"/>
<path d="M6.26238 26.9308H5.19796C4.59479 26.9308 4.13354 26.4695 4.13354 25.8664C4.13354 25.2632 4.59479 24.8019 5.19796 24.8019H6.26238V26.9308Z" fill="black" fill-opacity="0.2"/>
<path d="M7.26486 26.9308H6.20044V24.8019H7.26486C7.86802 24.8019 8.32927 25.2632 8.32927 25.8664C8.32927 26.4695 7.86802 26.9308 7.26486 26.9308Z" fill="#2F3655"/>
<path d="M7.26486 26.9308H6.20044V24.8019H7.26486C7.86802 24.8019 8.32927 25.2632 8.32927 25.8664C8.32927 26.4695 7.86802 26.9308 7.26486 26.9308Z" fill="black" fill-opacity="0.2"/>
<path d="M13.4653 26.9308C14.0532 26.9308 14.5297 26.4542 14.5297 25.8664C14.5297 25.2785 14.0532 24.8019 13.4653 24.8019C12.8774 24.8019 12.4009 25.2785 12.4009 25.8664C12.4009 26.4542 12.8774 26.9308 13.4653 26.9308Z" fill="#2F3655"/>
<path d="M13.4653 26.9308C14.0532 26.9308 14.5297 26.4542 14.5297 25.8664C14.5297 25.2785 14.0532 24.8019 13.4653 24.8019C12.8774 24.8019 12.4009 25.2785 12.4009 25.8664C12.4009 26.4542 12.8774 26.9308 13.4653 26.9308Z" fill="black" fill-opacity="0.2"/>
<path d="M24.8639 26.9308H23.7995C23.1964 26.9308 22.7351 26.4695 22.7351 25.8664V24.8019H24.8639V26.9308Z" fill="#2F3655"/>
<path d="M24.8639 26.9308H23.7995C23.1964 26.9308 22.7351 26.4695 22.7351 25.8664V24.8019H24.8639V26.9308Z" fill="black" fill-opacity="0.2"/>
<path d="M26.9308 24.8019H24.802V26.9308H26.9308V24.8019Z" fill="#2F3655"/>
<path d="M26.9308 24.8019H24.802V26.9308H26.9308V24.8019Z" fill="black" fill-opacity="0.2"/>
<path d="M28.9975 24.8019H26.8687V26.9308H28.9975V24.8019Z" fill="#2F3655"/>
<path d="M28.9975 24.8019H26.8687V26.9308H28.9975V24.8019Z" fill="black" fill-opacity="0.2"/>
<path d="M30 26.9308H28.9355V24.8019H30C30.6031 24.8019 31.0644 25.2632 31.0644 25.8664C31.0644 26.4695 30.6031 26.9308 30 26.9308Z" fill="#2F3655"/>
<path d="M30 26.9308H28.9355V24.8019H30C30.6031 24.8019 31.0644 25.2632 31.0644 25.8664C31.0644 26.4695 30.6031 26.9308 30 26.9308Z" fill="black" fill-opacity="0.2"/>
<path d="M35.1982 24.8019H33.0693V26.9308H35.1982V24.8019Z" fill="#2F3655"/>
<path d="M35.1982 24.8019H33.0693V26.9308H35.1982V24.8019Z" fill="black" fill-opacity="0.2"/>
<path d="M36.2004 26.9308H35.136V24.8019H36.2004C36.8036 24.8019 37.2648 25.2632 37.2648 25.8664C37.2648 26.4695 36.8036 26.9308 36.2004 26.9308Z" fill="#2F3655"/>
<path d="M36.2004 26.9308H35.136V24.8019H36.2004C36.8036 24.8019 37.2648 25.2632 37.2648 25.8664C37.2648 26.4695 36.8036 26.9308 36.2004 26.9308Z" fill="black" fill-opacity="0.2"/>
<path d="M43.4655 26.9308H41.3367V25.8664C41.3367 25.2632 41.7979 24.8019 42.4011 24.8019H43.4655V26.9308Z" fill="#2F3655"/>
<path d="M43.4655 26.9308H41.3367V25.8664C41.3367 25.2632 41.7979 24.8019 42.4011 24.8019H43.4655V26.9308Z" fill="black" fill-opacity="0.2"/>
<path d="M45.5322 26.9308H43.4033V24.8019H44.4677C45.0709 24.8019 45.5322 25.2632 45.5322 25.8664V26.9308Z" fill="#2F3655"/>
<path d="M45.5322 26.9308H43.4033V24.8019H44.4677C45.0709 24.8019 45.5322 25.2632 45.5322 25.8664V26.9308Z" fill="black" fill-opacity="0.2"/>
<path d="M53.7995 26.9308H52.7351C52.1319 26.9308 51.6707 26.4695 51.6707 25.8664V24.8019H53.7995V26.9308Z" fill="#2F3655"/>
<path d="M53.7995 26.9308H52.7351C52.1319 26.9308 51.6707 26.4695 51.6707 25.8664V24.8019H53.7995V26.9308Z" fill="black" fill-opacity="0.2"/>
<path d="M54.802 26.9308H53.7375V24.8019H54.802C55.4051 24.8019 55.8664 25.2632 55.8664 25.8664C55.8664 26.4695 55.4051 26.9308 54.802 26.9308Z" fill="#2F3655"/>
<path d="M54.802 26.9308H53.7375V24.8019H54.802C55.4051 24.8019 55.8664 25.2632 55.8664 25.8664C55.8664 26.4695 55.4051 26.9308 54.802 26.9308Z" fill="black" fill-opacity="0.2"/>
<path d="M4.19573 28.9976H2.06689V27.9332C2.06689 27.33 2.52814 26.8688 3.13131 26.8688C3.73448 26.8688 4.19573 27.33 4.19573 27.9332V28.9976Z" fill="#2F3655"/>
<path d="M4.19573 28.9976H2.06689V27.9332C2.06689 27.33 2.52814 26.8688 3.13131 26.8688C3.73448 26.8688 4.19573 27.33 4.19573 27.9332V28.9976Z" fill="black" fill-opacity="0.2"/>
<path d="M9.33175 28.9976C9.91961 28.9976 10.3962 28.5211 10.3962 27.9332C10.3962 27.3453 9.91961 26.8688 9.33175 26.8688C8.74389 26.8688 8.26733 27.3453 8.26733 27.9332C8.26733 28.5211 8.74389 28.9976 9.33175 28.9976Z" fill="#2F3655"/>
<path d="M9.33175 28.9976C9.91961 28.9976 10.3962 28.5211 10.3962 27.9332C10.3962 27.3453 9.91961 26.8688 9.33175 26.8688C8.74389 26.8688 8.26733 27.3453 8.26733 27.9332C8.26733 28.5211 8.74389 28.9976 9.33175 28.9976Z" fill="black" fill-opacity="0.2"/>
<path d="M16.5966 28.9976H14.4678V27.9332C14.4678 27.33 14.929 26.8688 15.5322 26.8688C16.1354 26.8688 16.5966 27.33 16.5966 27.9332V28.9976Z" fill="#2F3655"/>
<path d="M16.5966 28.9976H14.4678V27.9332C14.4678 27.33 14.929 26.8688 15.5322 26.8688C16.1354 26.8688 16.5966 27.33 16.5966 27.9332V28.9976Z" fill="black" fill-opacity="0.2"/>
<path d="M27.9331 28.9976C27.3299 28.9976 26.8687 28.5364 26.8687 27.9332V26.8688H28.9975V27.9332C28.9975 28.5364 28.5362 28.9976 27.9331 28.9976Z" fill="#2F3655"/>
<path d="M27.9331 28.9976C27.3299 28.9976 26.8687 28.5364 26.8687 27.9332V26.8688H28.9975V27.9332C28.9975 28.5364 28.5362 28.9976 27.9331 28.9976Z" fill="black" fill-opacity="0.2"/>
<path d="M33.1313 28.9976H31.0024V27.9332C31.0024 27.33 31.4637 26.8688 32.0669 26.8688H33.1313V28.9976Z" fill="#2F3655"/>
<path d="M33.1313 28.9976H31.0024V27.9332C31.0024 27.33 31.4637 26.8688 32.0669 26.8688H33.1313V28.9976Z" fill="black" fill-opacity="0.2"/>
<path d="M34.1338 28.9976H33.0693V26.8688H35.1982V27.9332C35.1982 28.5364 34.7369 28.9976 34.1338 28.9976Z" fill="#2F3655"/>
<path d="M34.1338 28.9976H33.0693V26.8688H35.1982V27.9332C35.1982 28.5364 34.7369 28.9976 34.1338 28.9976Z" fill="black" fill-opacity="0.2"/>
<path d="M39.3317 28.9976H37.2029V27.9332C37.2029 27.33 37.6641 26.8688 38.2673 26.8688H39.3317V28.9976Z" fill="#2F3655"/>
<path d="M39.3317 28.9976H37.2029V27.9332C37.2029 27.33 37.6641 26.8688 38.2673 26.8688H39.3317V28.9976Z" fill="black" fill-opacity="0.2"/>
<path d="M41.3986 26.8688H39.2698V28.9976H41.3986V26.8688Z" fill="#2F3655"/>
<path d="M41.3986 26.8688H39.2698V28.9976H41.3986V26.8688Z" fill="black" fill-opacity="0.2"/>
<path d="M43.4655 26.8688H41.3367V28.9976H43.4655V26.8688Z" fill="#2F3655"/>
<path d="M43.4655 26.8688H41.3367V28.9976H43.4655V26.8688Z" fill="black" fill-opacity="0.2"/>
<path d="M45.5322 26.8688H43.4033V28.9976H45.5322V26.8688Z" fill="#2F3655"/>
<path d="M45.5322 26.8688H43.4033V28.9976H45.5322V26.8688Z" fill="black" fill-opacity="0.2"/>
<path d="M47.599 26.8688H45.4702V28.9976H47.599V26.8688Z" fill="#2F3655"/>
<path d="M47.599 26.8688H45.4702V28.9976H47.599V26.8688Z" fill="black" fill-opacity="0.2"/>
<path d="M49.6659 26.8688H47.5371V28.9976H49.6659V26.8688Z" fill="#2F3655"/>
<path d="M49.6659 26.8688H47.5371V28.9976H49.6659V26.8688Z" fill="black" fill-opacity="0.2"/>
<path d="M51.7326 28.9976H49.6038V26.8688H50.6682C51.2713 26.8688 51.7326 27.33 51.7326 27.9332V28.9976Z" fill="#2F3655"/>
<path d="M51.7326 28.9976H49.6038V26.8688H50.6682C51.2713 26.8688 51.7326 27.33 51.7326 27.9332V28.9976Z" fill="black" fill-opacity="0.2"/>
<path d="M58.9355 28.9976C59.5234 28.9976 59.9999 28.5211 59.9999 27.9332C59.9999 27.3453 59.5234 26.8688 58.9355 26.8688C58.3476 26.8688 57.8711 27.3453 57.8711 27.9332C57.8711 28.5211 58.3476 28.9976 58.9355 28.9976Z" fill="#2F3655"/>
<path d="M58.9355 28.9976C59.5234 28.9976 59.9999 28.5211 59.9999 27.9332C59.9999 27.3453 59.5234 26.8688 58.9355 26.8688C58.3476 26.8688 57.8711 27.3453 57.8711 27.9332C57.8711 28.5211 58.3476 28.9976 58.9355 28.9976Z" fill="black" fill-opacity="0.2"/>
<path d="M4.19573 31.0644H3.13131C2.52814 31.0644 2.06689 30.6032 2.06689 30V28.9356H4.19573V31.0644Z" fill="#2F3655"/>
<path d="M4.19573 31.0644H3.13131C2.52814 31.0644 2.06689 30.6032 2.06689 30V28.9356H4.19573V31.0644Z" fill="black" fill-opacity="0.2"/>
<path d="M6.26238 31.0644H4.13354V28.9356H5.19796C5.80113 28.9356 6.26238 29.3969 6.26238 30V31.0644Z" fill="#2F3655"/>
<path d="M6.26238 31.0644H4.13354V28.9356H5.19796C5.80113 28.9356 6.26238 29.3969 6.26238 30V31.0644Z" fill="black" fill-opacity="0.2"/>
<path d="M12.4631 31.0644H11.3986C10.7955 31.0644 10.3342 30.6032 10.3342 30C10.3342 29.3969 10.7955 28.9356 11.3986 28.9356H12.4631V31.0644Z" fill="#2F3655"/>
<path d="M12.4631 31.0644H11.3986C10.7955 31.0644 10.3342 30.6032 10.3342 30C10.3342 29.3969 10.7955 28.9356 11.3986 28.9356H12.4631V31.0644Z" fill="black" fill-opacity="0.2"/>
<path d="M14.5297 28.9356H12.4009V31.0644H14.5297V28.9356Z" fill="#2F3655"/>
<path d="M14.5297 28.9356H12.4009V31.0644H14.5297V28.9356Z" fill="black" fill-opacity="0.2"/>
<path d="M16.5966 28.9356H14.4678V31.0644H16.5966V28.9356Z" fill="#2F3655"/>
<path d="M16.5966 28.9356H14.4678V31.0644H16.5966V28.9356Z" fill="black" fill-opacity="0.2"/>
<path d="M18.6635 28.9356H16.5347V31.0644H18.6635V28.9356Z" fill="#2F3655"/>
<path d="M18.6635 28.9356H16.5347V31.0644H18.6635V28.9356Z" fill="black" fill-opacity="0.2"/>
<path d="M19.666 31.0644H18.6016V28.9356H19.666C20.2691 28.9356 20.7304 29.3969 20.7304 30C20.7304 30.6032 20.2691 31.0644 19.666 31.0644Z" fill="#2F3655"/>
<path d="M19.666 31.0644H18.6016V28.9356H19.666C20.2691 28.9356 20.7304 29.3969 20.7304 30C20.7304 30.6032 20.2691 31.0644 19.666 31.0644Z" fill="black" fill-opacity="0.2"/>
<path d="M24.8639 31.0644H22.7351V30C22.7351 29.3969 23.1964 28.9356 23.7995 28.9356C24.4027 28.9356 24.8639 29.3969 24.8639 30V31.0644Z" fill="#2F3655"/>
<path d="M24.8639 31.0644H22.7351V30C22.7351 29.3969 23.1964 28.9356 23.7995 28.9356C24.4027 28.9356 24.8639 29.3969 24.8639 30V31.0644Z" fill="black" fill-opacity="0.2"/>
<path d="M31.0644 31.0644H30C29.3968 31.0644 28.9355 30.6032 28.9355 30C28.9355 29.3969 29.3968 28.9356 30 28.9356H31.0644V31.0644Z" fill="#2F3655"/>
<path d="M31.0644 31.0644H30C29.3968 31.0644 28.9355 30.6032 28.9355 30C28.9355 29.3969 29.3968 28.9356 30 28.9356H31.0644V31.0644Z" fill="black" fill-opacity="0.2"/>
<path d="M32.0669 31.0644H31.0024V28.9356H33.1313V30C33.1313 30.6032 32.67 31.0644 32.0669 31.0644Z" fill="#2F3655"/>
<path d="M32.0669 31.0644H31.0024V28.9356H33.1313V30C33.1313 30.6032 32.67 31.0644 32.0669 31.0644Z" fill="black" fill-opacity="0.2"/>
<path d="M37.2648 31.0644H36.2004C35.5972 31.0644 35.136 30.6032 35.136 30C35.136 29.3969 35.5972 28.9356 36.2004 28.9356H37.2648V31.0644Z" fill="#2F3655"/>
<path d="M37.2648 31.0644H36.2004C35.5972 31.0644 35.136 30.6032 35.136 30C35.136 29.3969 35.5972 28.9356 36.2004 28.9356H37.2648V31.0644Z" fill="black" fill-opacity="0.2"/>
<path d="M39.3317 28.9356H37.2029V31.0644H39.3317V28.9356Z" fill="#2F3655"/>
<path d="M39.3317 28.9356H37.2029V31.0644H39.3317V28.9356Z" fill="black" fill-opacity="0.2"/>
<path d="M43.4655 28.9356H41.3367V31.0644H43.4655V28.9356Z" fill="#2F3655"/>
<path d="M43.4655 28.9356H41.3367V31.0644H43.4655V28.9356Z" fill="black" fill-opacity="0.2"/>
<path d="M47.599 28.9356H45.4702V31.0644H47.599V28.9356Z" fill="#2F3655"/>
<path d="M47.599 28.9356H45.4702V31.0644H47.599V28.9356Z" fill="black" fill-opacity="0.2"/>
<path d="M49.6659 28.9356H47.5371V31.0644H49.6659V28.9356Z" fill="#2F3655"/>
<path d="M49.6659 28.9356H47.5371V31.0644H49.6659V28.9356Z" fill="black" fill-opacity="0.2"/>
<path d="M51.7326 28.9356H49.6038V31.0644H51.7326V28.9356Z" fill="#2F3655"/>
<path d="M51.7326 28.9356H49.6038V31.0644H51.7326V28.9356Z" fill="black" fill-opacity="0.2"/>
<path d="M53.7995 28.9356H51.6707V31.0644H53.7995V28.9356Z" fill="#2F3655"/>
<path d="M53.7995 28.9356H51.6707V31.0644H53.7995V28.9356Z" fill="black" fill-opacity="0.2"/>
<path d="M54.802 31.0644H53.7375V28.9356H54.802C55.4051 28.9356 55.8664 29.3969 55.8664 30C55.8664 30.6032 55.4051 31.0644 54.802 31.0644Z" fill="#2F3655"/>
<path d="M54.802 31.0644H53.7375V28.9356H54.802C55.4051 28.9356 55.8664 29.3969 55.8664 30C55.8664 30.6032 55.4051 31.0644 54.802 31.0644Z" fill="black" fill-opacity="0.2"/>
<path d="M1.06442 33.1313C1.65228 33.1313 2.12883 32.6547 2.12883 32.0669C2.12883 31.479 1.65228 31.0024 1.06442 31.0024C0.476555 31.0024 0 31.479 0 32.0669C0 32.6547 0.476555 33.1313 1.06442 33.1313Z" fill="#2F3655"/>
<path d="M1.06442 33.1313C1.65228 33.1313 2.12883 32.6547 2.12883 32.0669C2.12883 31.479 1.65228 31.0024 1.06442 31.0024C0.476555 31.0024 0 31.479 0 32.0669C0 32.6547 0.476555 33.1313 1.06442 33.1313Z" fill="black" fill-opacity="0.2"/>
<path d="M5.19796 33.1313C4.59479 33.1313 4.13354 32.67 4.13354 32.0669V31.0024H6.26238V32.0669C6.26238 32.67 5.80113 33.1313 5.19796 33.1313Z" fill="#2F3655"/>
<path d="M5.19796 33.1313C4.59479 33.1313 4.13354 32.67 4.13354 32.0669V31.0024H6.26238V32.0669C6.26238 32.67 5.80113 33.1313 5.19796 33.1313Z" fill="black" fill-opacity="0.2"/>
<path d="M17.5991 33.1313C16.9959 33.1313 16.5347 32.67 16.5347 32.0669V31.0024H18.6635V32.0669C18.6635 32.67 18.2023 33.1313 17.5991 33.1313Z" fill="#2F3655"/>
<path d="M17.5991 33.1313C16.9959 33.1313 16.5347 32.67 16.5347 32.0669V31.0024H18.6635V32.0669C18.6635 32.67 18.2023 33.1313 17.5991 33.1313Z" fill="black" fill-opacity="0.2"/>
<path d="M24.8639 31.0024H22.7351V33.1313H24.8639V31.0024Z" fill="#2F3655"/>
<path d="M24.8639 31.0024H22.7351V33.1313H24.8639V31.0024Z" fill="black" fill-opacity="0.2"/>
<path d="M39.3317 31.0024H37.2029V33.1313H39.3317V31.0024Z" fill="#2F3655"/>
<path d="M39.3317 31.0024H37.2029V33.1313H39.3317V31.0024Z" fill="black" fill-opacity="0.2"/>
<path d="M43.4655 33.1313H42.4011C41.7979 33.1313 41.3367 32.67 41.3367 32.0669V31.0024H43.4655V33.1313Z" fill="#2F3655"/>
<path d="M43.4655 33.1313H42.4011C41.7979 33.1313 41.3367 32.67 41.3367 32.0669V31.0024H43.4655V33.1313Z" fill="black" fill-opacity="0.2"/>
<path d="M45.5322 31.0024H43.4033V33.1313H45.5322V31.0024Z" fill="#2F3655"/>
<path d="M45.5322 31.0024H43.4033V33.1313H45.5322V31.0024Z" fill="black" fill-opacity="0.2"/>
<path d="M46.5346 33.1313H45.4702V31.0024H47.599V32.0669C47.599 32.67 47.1378 33.1313 46.5346 33.1313Z" fill="#2F3655"/>
<path d="M46.5346 33.1313H45.4702V31.0024H47.599V32.0669C47.599 32.67 47.1378 33.1313 46.5346 33.1313Z" fill="black" fill-opacity="0.2"/>
<path d="M56.8689 33.1313C57.4567 33.1313 57.9333 32.6547 57.9333 32.0669C57.9333 31.479 57.4567 31.0024 56.8689 31.0024C56.281 31.0024 55.8044 31.479 55.8044 32.0669C55.8044 32.6547 56.281 33.1313 56.8689 33.1313Z" fill="#2F3655"/>
<path d="M56.8689 33.1313C57.4567 33.1313 57.9333 32.6547 57.9333 32.0669C57.9333 31.479 57.4567 31.0024 56.8689 31.0024C56.281 31.0024 55.8044 31.479 55.8044 32.0669C55.8044 32.6547 56.281 33.1313 56.8689 33.1313Z" fill="black" fill-opacity="0.2"/>
<path d="M14.5297 35.198H13.4653C12.8621 35.198 12.4009 34.7368 12.4009 34.1336C12.4009 33.5305 12.8621 33.0692 13.4653 33.0692H14.5297V35.198Z" fill="#2F3655"/>
<path d="M14.5297 35.198H13.4653C12.8621 35.198 12.4009 34.7368 12.4009 34.1336C12.4009 33.5305 12.8621 33.0692 13.4653 33.0692H14.5297V35.198Z" fill="black" fill-opacity="0.2"/>
<path d="M15.5322 35.198H14.4678V33.0692H15.5322C16.1354 33.0692 16.5966 33.5305 16.5966 34.1336C16.5966 34.7368 16.1354 35.198 15.5322 35.198Z" fill="#2F3655"/>
<path d="M15.5322 35.198H14.4678V33.0692H15.5322C16.1354 33.0692 16.5966 33.5305 16.5966 34.1336C16.5966 34.7368 16.1354 35.198 15.5322 35.198Z" fill="black" fill-opacity="0.2"/>
<path d="M22.797 35.198H20.6682V34.1336C20.6682 33.5305 21.1295 33.0692 21.7326 33.0692H22.797V35.198Z" fill="#2F3655"/>
<path d="M22.797 35.198H20.6682V34.1336C20.6682 33.5305 21.1295 33.0692 21.7326 33.0692H22.797V35.198Z" fill="black" fill-opacity="0.2"/>
<path d="M24.8639 33.0692H22.7351V35.198H24.8639V33.0692Z" fill="#2F3655"/>
<path d="M24.8639 33.0692H22.7351V35.198H24.8639V33.0692Z" fill="black" fill-opacity="0.2"/>
<path d="M28.9975 35.198H27.9331C27.3299 35.198 26.8687 34.7368 26.8687 34.1336C26.8687 33.5305 27.3299 33.0692 27.9331 33.0692H28.9975V35.198Z" fill="#2F3655"/>
<path d="M28.9975 35.198H27.9331C27.3299 35.198 26.8687 34.7368 26.8687 34.1336C26.8687 33.5305 27.3299 33.0692 27.9331 33.0692H28.9975V35.198Z" fill="black" fill-opacity="0.2"/>
<path d="M31.0644 33.0692H28.9355V35.198H31.0644V33.0692Z" fill="#2F3655"/>
<path d="M31.0644 33.0692H28.9355V35.198H31.0644V33.0692Z" fill="black" fill-opacity="0.2"/>
<path d="M33.1313 33.0692H31.0024V35.198H33.1313V33.0692Z" fill="#2F3655"/>
<path d="M33.1313 33.0692H31.0024V35.198H33.1313V33.0692Z" fill="black" fill-opacity="0.2"/>
<path d="M34.1338 35.198H33.0693V33.0692H34.1338C34.7369 33.0692 35.1982 33.5305 35.1982 34.1336C35.1982 34.7368 34.7369 35.198 34.1338 35.198Z" fill="#2F3655"/>
<path d="M34.1338 35.198H33.0693V33.0692H34.1338C34.7369 33.0692 35.1982 33.5305 35.1982 34.1336C35.1982 34.7368 34.7369 35.198 34.1338 35.198Z" fill="black" fill-opacity="0.2"/>
<path d="M39.3317 33.0692H37.2029V35.198H39.3317V33.0692Z" fill="#2F3655"/>
<path d="M39.3317 33.0692H37.2029V35.198H39.3317V33.0692Z" fill="black" fill-opacity="0.2"/>
<path d="M53.7995 35.198H52.7351C52.1319 35.198 51.6707 34.7368 51.6707 34.1336C51.6707 33.5305 52.1319 33.0692 52.7351 33.0692H53.7995V35.198Z" fill="#2F3655"/>
<path d="M53.7995 35.198H52.7351C52.1319 35.198 51.6707 34.7368 51.6707 34.1336C51.6707 33.5305 52.1319 33.0692 52.7351 33.0692H53.7995V35.198Z" fill="black" fill-opacity="0.2"/>
<path d="M55.8664 35.198H53.7375V33.0692H54.802C55.4051 33.0692 55.8664 33.5305 55.8664 34.1336V35.198Z" fill="#2F3655"/>
<path d="M55.8664 35.198H53.7375V33.0692H54.802C55.4051 33.0692 55.8664 33.5305 55.8664 34.1336V35.198Z" fill="black" fill-opacity="0.2"/>
<path d="M2.12883 37.2649H0V36.2005C0 35.5973 0.461247 35.136 1.06442 35.136C1.66759 35.136 2.12883 35.5973 2.12883 36.2005V37.2649Z" fill="#2F3655"/>
<path d="M2.12883 37.2649H0V36.2005C0 35.5973 0.461247 35.136 1.06442 35.136C1.66759 35.136 2.12883 35.5973 2.12883 36.2005V37.2649Z" fill="black" fill-opacity="0.2"/>
<path d="M8.32927 37.2649H6.20044V36.2005C6.20044 35.5973 6.66169 35.136 7.26486 35.136H8.32927V37.2649Z" fill="#2F3655"/>
<path d="M8.32927 37.2649H6.20044V36.2005C6.20044 35.5973 6.66169 35.136 7.26486 35.136H8.32927V37.2649Z" fill="black" fill-opacity="0.2"/>
<path d="M10.3962 35.136H8.26733V37.2649H10.3962V35.136Z" fill="#2F3655"/>
<path d="M10.3962 35.136H8.26733V37.2649H10.3962V35.136Z" fill="black" fill-opacity="0.2"/>
<path d="M12.4631 37.2649H10.3342V35.136H11.3986C12.0018 35.136 12.4631 35.5973 12.4631 36.2005V37.2649Z" fill="#2F3655"/>
<path d="M12.4631 37.2649H10.3342V35.136H11.3986C12.0018 35.136 12.4631 35.5973 12.4631 36.2005V37.2649Z" fill="black" fill-opacity="0.2"/>
<path d="M17.5991 37.2649C18.1869 37.2649 18.6635 36.7883 18.6635 36.2005C18.6635 35.6126 18.1869 35.136 17.5991 35.136C17.0112 35.136 16.5347 35.6126 16.5347 36.2005C16.5347 36.7883 17.0112 37.2649 17.5991 37.2649Z" fill="#2F3655"/>
<path d="M17.5991 37.2649C18.1869 37.2649 18.6635 36.7883 18.6635 36.2005C18.6635 35.6126 18.1869 35.136 17.5991 35.136C17.0112 35.136 16.5347 35.6126 16.5347 36.2005C16.5347 36.7883 17.0112 37.2649 17.5991 37.2649Z" fill="black" fill-opacity="0.2"/>
<path d="M22.797 35.136H20.6682V37.2649H22.797V35.136Z" fill="#2F3655"/>
<path d="M22.797 35.136H20.6682V37.2649H22.797V35.136Z" fill="black" fill-opacity="0.2"/>
<path d="M24.8639 35.136H22.7351V37.2649H24.8639V35.136Z" fill="#2F3655"/>
<path d="M24.8639 35.136H22.7351V37.2649H24.8639V35.136Z" fill="black" fill-opacity="0.2"/>
<path d="M25.8664 37.2649H24.802V35.136H25.8664C26.4696 35.136 26.9308 35.5973 26.9308 36.2005C26.9308 36.8036 26.4696 37.2649 25.8664 37.2649Z" fill="#2F3655"/>
<path d="M25.8664 37.2649H24.802V35.136H25.8664C26.4696 35.136 26.9308 35.5973 26.9308 36.2005C26.9308 36.8036 26.4696 37.2649 25.8664 37.2649Z" fill="black" fill-opacity="0.2"/>
<path d="M33.1313 35.136H31.0024V37.2649H33.1313V35.136Z" fill="#2F3655"/>
<path d="M33.1313 35.136H31.0024V37.2649H33.1313V35.136Z" fill="black" fill-opacity="0.2"/>
<path d="M39.3317 37.2649H38.2673C37.6641 37.2649 37.2029 36.8036 37.2029 36.2005V35.136H39.3317V37.2649Z" fill="#2F3655"/>
<path d="M39.3317 37.2649H38.2673C37.6641 37.2649 37.2029 36.8036 37.2029 36.2005V35.136H39.3317V37.2649Z" fill="black" fill-opacity="0.2"/>
<path d="M41.3986 35.136H39.2698V37.2649H41.3986V35.136Z" fill="#2F3655"/>
<path d="M41.3986 35.136H39.2698V37.2649H41.3986V35.136Z" fill="black" fill-opacity="0.2"/>
<path d="M43.4655 35.136H41.3367V37.2649H43.4655V35.136Z" fill="#2F3655"/>
<path d="M43.4655 35.136H41.3367V37.2649H43.4655V35.136Z" fill="black" fill-opacity="0.2"/>
<path d="M45.5322 35.136H43.4033V37.2649H45.5322V35.136Z" fill="#2F3655"/>
<path d="M45.5322 35.136H43.4033V37.2649H45.5322V35.136Z" fill="black" fill-opacity="0.2"/>
<path d="M47.599 35.136H45.4702V37.2649H47.599V35.136Z" fill="#2F3655"/>
<path d="M47.599 35.136H45.4702V37.2649H47.599V35.136Z" fill="black" fill-opacity="0.2"/>
<path d="M49.6659 35.136H47.5371V37.2649H49.6659V35.136Z" fill="#2F3655"/>
<path d="M49.6659 35.136H47.5371V37.2649H49.6659V35.136Z" fill="black" fill-opacity="0.2"/>
<path d="M51.7326 37.2649H49.6038V35.136H50.6682C51.2713 35.136 51.7326 35.5973 51.7326 36.2005V37.2649Z" fill="#2F3655"/>
<path d="M51.7326 37.2649H49.6038V35.136H50.6682C51.2713 35.136 51.7326 35.5973 51.7326 36.2005V37.2649Z" fill="black" fill-opacity="0.2"/>
<path d="M55.8664 35.136H53.7375V37.2649H55.8664V35.136Z" fill="#2F3655"/>
<path d="M55.8664 35.136H53.7375V37.2649H55.8664V35.136Z" fill="black" fill-opacity="0.2"/>
<path d="M58.9355 37.2649C59.5234 37.2649 59.9999 36.7883 59.9999 36.2005C59.9999 35.6126 59.5234 35.136 58.9355 35.136C58.3476 35.136 57.8711 35.6126 57.8711 36.2005C57.8711 36.7883 58.3476 37.2649 58.9355 37.2649Z" fill="#2F3655"/>
<path d="M58.9355 37.2649C59.5234 37.2649 59.9999 36.7883 59.9999 36.2005C59.9999 35.6126 59.5234 35.136 58.9355 35.136C58.3476 35.136 57.8711 35.6126 57.8711 36.2005C57.8711 36.7883 58.3476 37.2649 58.9355 37.2649Z" fill="black" fill-opacity="0.2"/>
<path d="M2.12883 37.2029H0V39.3317H2.12883V37.2029Z" fill="#2F3655"/>
<path d="M2.12883 37.2029H0V39.3317H2.12883V37.2029Z" fill="black" fill-opacity="0.2"/>
<path d="M7.26486 39.3317C6.66169 39.3317 6.20044 38.8705 6.20044 38.2673V37.2029H8.32927V38.2673C8.32927 38.8705 7.86802 39.3317 7.26486 39.3317Z" fill="#2F3655"/>
<path d="M7.26486 39.3317C6.66169 39.3317 6.20044 38.8705 6.20044 38.2673V37.2029H8.32927V38.2673C8.32927 38.8705 7.86802 39.3317 7.26486 39.3317Z" fill="black" fill-opacity="0.2"/>
<path d="M12.4631 37.2029H10.3342V39.3317H12.4631V37.2029Z" fill="#2F3655"/>
<path d="M12.4631 37.2029H10.3342V39.3317H12.4631V37.2029Z" fill="black" fill-opacity="0.2"/>
<path d="M13.4653 39.3317H12.4009V37.2029H13.4653C14.0685 37.2029 14.5297 37.6641 14.5297 38.2673C14.5297 38.8705 14.0685 39.3317 13.4653 39.3317Z" fill="#2F3655"/>
<path d="M13.4653 39.3317H12.4009V37.2029H13.4653C14.0685 37.2029 14.5297 37.6641 14.5297 38.2673C14.5297 38.8705 14.0685 39.3317 13.4653 39.3317Z" fill="black" fill-opacity="0.2"/>
<path d="M22.797 37.2029H20.6682V39.3317H22.797V37.2029Z" fill="#2F3655"/>
<path d="M22.797 37.2029H20.6682V39.3317H22.797V37.2029Z" fill="black" fill-opacity="0.2"/>
<path d="M23.7995 39.3317H22.7351V37.2029H24.8639V38.2673C24.8639 38.8705 24.4027 39.3317 23.7995 39.3317Z" fill="#2F3655"/>
<path d="M23.7995 39.3317H22.7351V37.2029H24.8639V38.2673C24.8639 38.8705 24.4027 39.3317 23.7995 39.3317Z" fill="black" fill-opacity="0.2"/>
<path d="M28.9975 39.3317H26.8687V38.2673C26.8687 37.6641 27.3299 37.2029 27.9331 37.2029H28.9975V39.3317Z" fill="#2F3655"/>
<path d="M28.9975 39.3317H26.8687V38.2673C26.8687 37.6641 27.3299 37.2029 27.9331 37.2029H28.9975V39.3317Z" fill="black" fill-opacity="0.2"/>
<path d="M31.0644 37.2029H28.9355V39.3317H31.0644V37.2029Z" fill="#2F3655"/>
<path d="M31.0644 37.2029H28.9355V39.3317H31.0644V37.2029Z" fill="black" fill-opacity="0.2"/>
<path d="M33.1313 37.2029H31.0024V39.3317H33.1313V37.2029Z" fill="#2F3655"/>
<path d="M33.1313 37.2029H31.0024V39.3317H33.1313V37.2029Z" fill="black" fill-opacity="0.2"/>
<path d="M46.5346 39.3317C45.9315 39.3317 45.4702 38.8705 45.4702 38.2673V37.2029H47.599V38.2673C47.599 38.8705 47.1378 39.3317 46.5346 39.3317Z" fill="#2F3655"/>
<path d="M46.5346 39.3317C45.9315 39.3317 45.4702 38.8705 45.4702 38.2673V37.2029H47.599V38.2673C47.599 38.8705 47.1378 39.3317 46.5346 39.3317Z" fill="black" fill-opacity="0.2"/>
<path d="M50.6682 39.3317C50.065 39.3317 49.6038 38.8705 49.6038 38.2673V37.2029H51.7326V38.2673C51.7326 38.8705 51.2713 39.3317 50.6682 39.3317Z" fill="#2F3655"/>
<path d="M50.6682 39.3317C50.065 39.3317 49.6038 38.8705 49.6038 38.2673V37.2029H51.7326V38.2673C51.7326 38.8705 51.2713 39.3317 50.6682 39.3317Z" fill="black" fill-opacity="0.2"/>
<path d="M54.802 39.3317C54.1988 39.3317 53.7375 38.8705 53.7375 38.2673V37.2029H55.8664V38.2673C55.8664 38.8705 55.4051 39.3317 54.802 39.3317Z" fill="#2F3655"/>
<path d="M54.802 39.3317C54.1988 39.3317 53.7375 38.8705 53.7375 38.2673V37.2029H55.8664V38.2673C55.8664 38.8705 55.4051 39.3317 54.802 39.3317Z" fill="black" fill-opacity="0.2"/>
<path d="M2.12883 39.2697H0V41.3985H2.12883V39.2697Z" fill="#2F3655"/>
<path d="M2.12883 39.2697H0V41.3985H2.12883V39.2697Z" fill="black" fill-opacity="0.2"/>
<path d="M11.3986 41.3985C10.7955 41.3985 10.3342 40.9373 10.3342 40.3341V39.2697H12.4631V40.3341C12.4631 40.9373 12.0018 41.3985 11.3986 41.3985Z" fill="#2F3655"/>
<path d="M11.3986 41.3985C10.7955 41.3985 10.3342 40.9373 10.3342 40.3341V39.2697H12.4631V40.3341C12.4631 40.9373 12.0018 41.3985 11.3986 41.3985Z" fill="black" fill-opacity="0.2"/>
<path d="M15.5322 41.3985C16.1201 41.3985 16.5966 40.922 16.5966 40.3341C16.5966 39.7463 16.1201 39.2697 15.5322 39.2697C14.9443 39.2697 14.4678 39.7463 14.4678 40.3341C14.4678 40.922 14.9443 41.3985 15.5322 41.3985Z" fill="#2F3655"/>
<path d="M15.5322 41.3985C16.1201 41.3985 16.5966 40.922 16.5966 40.3341C16.5966 39.7463 16.1201 39.2697 15.5322 39.2697C14.9443 39.2697 14.4678 39.7463 14.4678 40.3341C14.4678 40.922 14.9443 41.3985 15.5322 41.3985Z" fill="black" fill-opacity="0.2"/>
<path d="M20.7304 41.3985H18.6016V40.3341C18.6016 39.731 19.0628 39.2697 19.666 39.2697H20.7304V41.3985Z" fill="#2F3655"/>
<path d="M20.7304 41.3985H18.6016V40.3341C18.6016 39.731 19.0628 39.2697 19.666 39.2697H20.7304V41.3985Z" fill="black" fill-opacity="0.2"/>
<path d="M22.797 39.2697H20.6682V41.3985H22.797V39.2697Z" fill="#2F3655"/>
<path d="M22.797 39.2697H20.6682V41.3985H22.797V39.2697Z" fill="black" fill-opacity="0.2"/>
<path d="M26.9308 41.3985H24.802V40.3341C24.802 39.731 25.2632 39.2697 25.8664 39.2697H26.9308V41.3985Z" fill="#2F3655"/>
<path d="M26.9308 41.3985H24.802V40.3341C24.802 39.731 25.2632 39.2697 25.8664 39.2697H26.9308V41.3985Z" fill="black" fill-opacity="0.2"/>
<path d="M27.9331 41.3985H26.8687V39.2697H28.9975V40.3341C28.9975 40.9373 28.5362 41.3985 27.9331 41.3985Z" fill="#2F3655"/>
<path d="M27.9331 41.3985H26.8687V39.2697H28.9975V40.3341C28.9975 40.9373 28.5362 41.3985 27.9331 41.3985Z" fill="black" fill-opacity="0.2"/>
<path d="M32.0669 41.3985C31.4637 41.3985 31.0024 40.9373 31.0024 40.3341V39.2697H33.1313V40.3341C33.1313 40.9373 32.67 41.3985 32.0669 41.3985Z" fill="#2F3655"/>
<path d="M32.0669 41.3985C31.4637 41.3985 31.0024 40.9373 31.0024 40.3341V39.2697H33.1313V40.3341C33.1313 40.9373 32.67 41.3985 32.0669 41.3985Z" fill="black" fill-opacity="0.2"/>
<path d="M40.3342 41.3985C40.9221 41.3985 41.3986 40.922 41.3986 40.3341C41.3986 39.7463 40.9221 39.2697 40.3342 39.2697C39.7463 39.2697 39.2698 39.7463 39.2698 40.3341C39.2698 40.922 39.7463 41.3985 40.3342 41.3985Z" fill="#2F3655"/>
<path d="M40.3342 41.3985C40.9221 41.3985 41.3986 40.922 41.3986 40.3341C41.3986 39.7463 40.9221 39.2697 40.3342 39.2697C39.7463 39.2697 39.2698 39.7463 39.2698 40.3341C39.2698 40.922 39.7463 41.3985 40.3342 41.3985Z" fill="black" fill-opacity="0.2"/>
<path d="M45.5322 41.3985H43.4033V40.3341C43.4033 39.731 43.8646 39.2697 44.4677 39.2697C45.0709 39.2697 45.5322 39.731 45.5322 40.3341V41.3985Z" fill="#2F3655"/>
<path d="M45.5322 41.3985H43.4033V40.3341C43.4033 39.731 43.8646 39.2697 44.4677 39.2697C45.0709 39.2697 45.5322 39.731 45.5322 40.3341V41.3985Z" fill="black" fill-opacity="0.2"/>
<path d="M49.6659 41.3985H47.5371V40.3341C47.5371 39.731 47.9984 39.2697 48.6015 39.2697C49.2047 39.2697 49.6659 39.731 49.6659 40.3341V41.3985Z" fill="#2F3655"/>
<path d="M49.6659 41.3985H47.5371V40.3341C47.5371 39.731 47.9984 39.2697 48.6015 39.2697C49.2047 39.2697 49.6659 39.731 49.6659 40.3341V41.3985Z" fill="black" fill-opacity="0.2"/>
<path d="M57.9333 41.3985H55.8044V40.3341C55.8044 39.731 56.2657 39.2697 56.8689 39.2697C57.472 39.2697 57.9333 39.731 57.9333 40.3341V41.3985Z" fill="#2F3655"/>
<path d="M57.9333 41.3985H55.8044V40.3341C55.8044 39.731 56.2657 39.2697 56.8689 39.2697C57.472 39.2697 57.9333 39.731 57.9333 40.3341V41.3985Z" fill="black" fill-opacity="0.2"/>
<path d="M1.06442 43.4654C0.461247 43.4654 0 43.0041 0 42.401V41.3365H2.12883V42.401C2.12883 43.0041 1.66759 43.4654 1.06442 43.4654Z" fill="#2F3655"/>
<path d="M1.06442 43.4654C0.461247 43.4654 0 43.0041 0 42.401V41.3365H2.12883V42.401C2.12883 43.0041 1.66759 43.4654 1.06442 43.4654Z" fill="black" fill-opacity="0.2"/>
<path d="M9.33175 43.4654C9.91961 43.4654 10.3962 42.9888 10.3962 42.401C10.3962 41.8131 9.91961 41.3365 9.33175 41.3365C8.74389 41.3365 8.26733 41.8131 8.26733 42.401C8.26733 42.9888 8.74389 43.4654 9.33175 43.4654Z" fill="#2F3655"/>
<path d="M9.33175 43.4654C9.91961 43.4654 10.3962 42.9888 10.3962 42.401C10.3962 41.8131 9.91961 41.3365 9.33175 41.3365C8.74389 41.3365 8.26733 41.8131 8.26733 42.401C8.26733 42.9888 8.74389 43.4654 9.33175 43.4654Z" fill="black" fill-opacity="0.2"/>
<path d="M13.4653 43.4654C14.0532 43.4654 14.5297 42.9888 14.5297 42.401C14.5297 41.8131 14.0532 41.3365 13.4653 41.3365C12.8774 41.3365 12.4009 41.8131 12.4009 42.401C12.4009 42.9888 12.8774 43.4654 13.4653 43.4654Z" fill="#2F3655"/>
<path d="M13.4653 43.4654C14.0532 43.4654 14.5297 42.9888 14.5297 42.401C14.5297 41.8131 14.0532 41.3365 13.4653 41.3365C12.8774 41.3365 12.4009 41.8131 12.4009 42.401C12.4009 42.9888 12.8774 43.4654 13.4653 43.4654Z" fill="black" fill-opacity="0.2"/>
<path d="M18.6635 43.4654H16.5347V42.401C16.5347 41.7978 16.9959 41.3365 17.5991 41.3365H18.6635V43.4654Z" fill="#2F3655"/>
<path d="M18.6635 43.4654H16.5347V42.401C16.5347 41.7978 16.9959 41.3365 17.5991 41.3365H18.6635V43.4654Z" fill="black" fill-opacity="0.2"/>
<path d="M20.7304 41.3365H18.6016V43.4654H20.7304V41.3365Z" fill="#2F3655"/>
<path d="M20.7304 41.3365H18.6016V43.4654H20.7304V41.3365Z" fill="black" fill-opacity="0.2"/>
<path d="M21.7326 43.4654H20.6682V41.3365H22.797V42.401C22.797 43.0041 22.3358 43.4654 21.7326 43.4654Z" fill="#2F3655"/>
<path d="M21.7326 43.4654H20.6682V41.3365H22.797V42.401C22.797 43.0041 22.3358 43.4654 21.7326 43.4654Z" fill="black" fill-opacity="0.2"/>
<path d="M25.8664 43.4654C25.2632 43.4654 24.802 43.0041 24.802 42.401V41.3365H26.9308V42.401C26.9308 43.0041 26.4696 43.4654 25.8664 43.4654Z" fill="#2F3655"/>
<path d="M25.8664 43.4654C25.2632 43.4654 24.802 43.0041 24.802 42.401V41.3365H26.9308V42.401C26.9308 43.0041 26.4696 43.4654 25.8664 43.4654Z" fill="black" fill-opacity="0.2"/>
<path d="M30 43.4654C30.5878 43.4654 31.0644 42.9888 31.0644 42.401C31.0644 41.8131 30.5878 41.3365 30 41.3365C29.4121 41.3365 28.9355 41.8131 28.9355 42.401C28.9355 42.9888 29.4121 43.4654 30 43.4654Z" fill="#2F3655"/>
<path d="M30 43.4654C30.5878 43.4654 31.0644 42.9888 31.0644 42.401C31.0644 41.8131 30.5878 41.3365 30 41.3365C29.4121 41.3365 28.9355 41.8131 28.9355 42.401C28.9355 42.9888 29.4121 43.4654 30 43.4654Z" fill="black" fill-opacity="0.2"/>
<path d="M38.2673 43.4654C38.8552 43.4654 39.3317 42.9888 39.3317 42.401C39.3317 41.8131 38.8552 41.3365 38.2673 41.3365C37.6794 41.3365 37.2029 41.8131 37.2029 42.401C37.2029 42.9888 37.6794 43.4654 38.2673 43.4654Z" fill="#2F3655"/>
<path d="M38.2673 43.4654C38.8552 43.4654 39.3317 42.9888 39.3317 42.401C39.3317 41.8131 38.8552 41.3365 38.2673 41.3365C37.6794 41.3365 37.2029 41.8131 37.2029 42.401C37.2029 42.9888 37.6794 43.4654 38.2673 43.4654Z" fill="black" fill-opacity="0.2"/>
<path d="M43.4655 43.4654H41.3367V42.401C41.3367 41.7978 41.7979 41.3365 42.4011 41.3365H43.4655V43.4654Z" fill="#2F3655"/>
<path d="M43.4655 43.4654H41.3367V42.401C41.3367 41.7978 41.7979 41.3365 42.4011 41.3365H43.4655V43.4654Z" fill="black" fill-opacity="0.2"/>
<path d="M45.5322 41.3365H43.4033V43.4654H45.5322V41.3365Z" fill="#2F3655"/>
<path d="M45.5322 41.3365H43.4033V43.4654H45.5322V41.3365Z" fill="black" fill-opacity="0.2"/>
<path d="M47.599 41.3365H45.4702V43.4654H47.599V41.3365Z" fill="#2F3655"/>
<path d="M47.599 41.3365H45.4702V43.4654H47.599V41.3365Z" fill="black" fill-opacity="0.2"/>
<path d="M49.6659 41.3365H47.5371V43.4654H49.6659V41.3365Z" fill="#2F3655"/>
<path d="M49.6659 41.3365H47.5371V43.4654H49.6659V41.3365Z" fill="black" fill-opacity="0.2"/>
<path d="M51.7326 43.4654H49.6038V41.3365H50.6682C51.2713 41.3365 51.7326 41.7978 51.7326 42.401V43.4654Z" fill="#2F3655"/>
<path d="M51.7326 43.4654H49.6038V41.3365H50.6682C51.2713 41.3365 51.7326 41.7978 51.7326 42.401V43.4654Z" fill="black" fill-opacity="0.2"/>
<path d="M55.8664 43.4654H53.7375V42.401C53.7375 41.7978 54.1988 41.3365 54.802 41.3365H55.8664V43.4654Z" fill="#2F3655"/>
<path d="M55.8664 43.4654H53.7375V42.401C53.7375 41.7978 54.1988 41.3365 54.802 41.3365H55.8664V43.4654Z" fill="black" fill-opacity="0.2"/>
<path d="M57.9333 41.3365H55.8044V43.4654H57.9333V41.3365Z" fill="#2F3655"/>
<path d="M57.9333 41.3365H55.8044V43.4654H57.9333V41.3365Z" fill="black" fill-opacity="0.2"/>
<path d="M59.9999 43.4654H57.8711V41.3365H58.9355C59.5387 41.3365 59.9999 41.7978 59.9999 42.401V43.4654Z" fill="#2F3655"/>
<path d="M59.9999 43.4654H57.8711V41.3365H58.9355C59.5387 41.3365 59.9999 41.7978 59.9999 42.401V43.4654Z" fill="black" fill-opacity="0.2"/>
<path d="M18.6635 45.5322H17.5991C16.9959 45.5322 16.5347 45.071 16.5347 44.4678V43.4034H18.6635V45.5322Z" fill="#2F3655"/>
<path d="M18.6635 45.5322H17.5991C16.9959 45.5322 16.5347 45.071 16.5347 44.4678V43.4034H18.6635V45.5322Z" fill="black" fill-opacity="0.2"/>
<path d="M19.666 45.5322H18.6016V43.4034H20.7304V44.4678C20.7304 45.071 20.2691 45.5322 19.666 45.5322Z" fill="#2F3655"/>
<path d="M19.666 45.5322H18.6016V43.4034H20.7304V44.4678C20.7304 45.071 20.2691 45.5322 19.666 45.5322Z" fill="black" fill-opacity="0.2"/>
<path d="M41.3986 45.5322H39.2698V44.4678C39.2698 43.8646 39.731 43.4034 40.3342 43.4034H41.3986V45.5322Z" fill="#2F3655"/>
<path d="M41.3986 45.5322H39.2698V44.4678C39.2698 43.8646 39.731 43.4034 40.3342 43.4034H41.3986V45.5322Z" fill="black" fill-opacity="0.2"/>
<path d="M43.4655 43.4034H41.3367V45.5322H43.4655V43.4034Z" fill="#2F3655"/>
<path d="M43.4655 43.4034H41.3367V45.5322H43.4655V43.4034Z" fill="black" fill-opacity="0.2"/>
<path d="M51.7326 43.4034H49.6038V45.5322H51.7326V43.4034Z" fill="#2F3655"/>
<path d="M51.7326 43.4034H49.6038V45.5322H51.7326V43.4034Z" fill="black" fill-opacity="0.2"/>
<path d="M53.7995 43.4034H51.6707V45.5322H53.7995V43.4034Z" fill="#2F3655"/>
<path d="M53.7995 43.4034H51.6707V45.5322H53.7995V43.4034Z" fill="black" fill-opacity="0.2"/>
<path d="M55.8664 43.4034H53.7375V45.5322H55.8664V43.4034Z" fill="#2F3655"/>
<path d="M55.8664 43.4034H53.7375V45.5322H55.8664V43.4034Z" fill="black" fill-opacity="0.2"/>
<path d="M57.9333 43.4034H55.8044V45.5322H57.9333V43.4034Z" fill="#2F3655"/>
<path d="M57.9333 43.4034H55.8044V45.5322H57.9333V43.4034Z" fill="black" fill-opacity="0.2"/>
<path d="M58.9355 45.5322H57.8711V43.4034H59.9999V44.4678C59.9999 45.071 59.5387 45.5322 58.9355 45.5322Z" fill="#2F3655"/>
<path d="M58.9355 45.5322H57.8711V43.4034H59.9999V44.4678C59.9999 45.071 59.5387 45.5322 58.9355 45.5322Z" fill="black" fill-opacity="0.2"/>
<path d="M26.9308 47.599H25.8664C25.2632 47.599 24.802 47.1378 24.802 46.5346C24.802 45.9315 25.2632 45.4702 25.8664 45.4702H26.9308V47.599Z" fill="#2F3655"/>
<path d="M26.9308 47.599H25.8664C25.2632 47.599 24.802 47.1378 24.802 46.5346C24.802 45.9315 25.2632 45.4702 25.8664 45.4702H26.9308V47.599Z" fill="black" fill-opacity="0.2"/>
<path d="M28.9975 45.4702H26.8687V47.599H28.9975V45.4702Z" fill="#2F3655"/>
<path d="M28.9975 45.4702H26.8687V47.599H28.9975V45.4702Z" fill="black" fill-opacity="0.2"/>
<path d="M30 47.599H28.9355V45.4702H30C30.6031 45.4702 31.0644 45.9315 31.0644 46.5346C31.0644 47.1378 30.6031 47.599 30 47.599Z" fill="#2F3655"/>
<path d="M30 47.599H28.9355V45.4702H30C30.6031 45.4702 31.0644 45.9315 31.0644 46.5346C31.0644 47.1378 30.6031 47.599 30 47.599Z" fill="black" fill-opacity="0.2"/>
<path d="M37.2648 47.599H35.136V46.5346C35.136 45.9315 35.5972 45.4702 36.2004 45.4702H37.2648V47.599Z" fill="#2F3655"/>
<path d="M37.2648 47.599H35.136V46.5346C35.136 45.9315 35.5972 45.4702 36.2004 45.4702H37.2648V47.599Z" fill="black" fill-opacity="0.2"/>
<path d="M39.3317 45.4702H37.2029V47.599H39.3317V45.4702Z" fill="#2F3655"/>
<path d="M39.3317 45.4702H37.2029V47.599H39.3317V45.4702Z" fill="black" fill-opacity="0.2"/>
<path d="M41.3986 45.4702H39.2698V47.599H41.3986V45.4702Z" fill="#2F3655"/>
<path d="M41.3986 45.4702H39.2698V47.599H41.3986V45.4702Z" fill="black" fill-opacity="0.2"/>
<path d="M43.4655 45.4702H41.3367V47.599H43.4655V45.4702Z" fill="#2F3655"/>
<path d="M43.4655 45.4702H41.3367V47.599H43.4655V45.4702Z" fill="black" fill-opacity="0.2"/>
<path d="M46.5346 47.599C47.1225 47.599 47.599 47.1225 47.599 46.5346C47.599 45.9468 47.1225 45.4702 46.5346 45.4702C45.9468 45.4702 45.4702 45.9468 45.4702 46.5346C45.4702 47.1225 45.9468 47.599 46.5346 47.599Z" fill="#2F3655"/>
<path d="M46.5346 47.599C47.1225 47.599 47.599 47.1225 47.599 46.5346C47.599 45.9468 47.1225 45.4702 46.5346 45.4702C45.9468 45.4702 45.4702 45.9468 45.4702 46.5346C45.4702 47.1225 45.9468 47.599 46.5346 47.599Z" fill="black" fill-opacity="0.2"/>
<path d="M51.7326 45.4702H49.6038V47.599H51.7326V45.4702Z" fill="#2F3655"/>
<path d="M51.7326 45.4702H49.6038V47.599H51.7326V45.4702Z" fill="black" fill-opacity="0.2"/>
<path d="M53.7995 45.4702H51.6707V47.599H53.7995V45.4702Z" fill="#2F3655"/>
<path d="M53.7995 45.4702H51.6707V47.599H53.7995V45.4702Z" fill="black" fill-opacity="0.2"/>
<path d="M54.802 47.599H53.7375V45.4702H55.8664V46.5346C55.8664 47.1378 55.4051 47.599 54.802 47.599Z" fill="#2F3655"/>
<path d="M54.802 47.599H53.7375V45.4702H55.8664V46.5346C55.8664 47.1378 55.4051 47.599 54.802 47.599Z" fill="black" fill-opacity="0.2"/>
<path d="M18.6635 49.6659H16.5347V48.6015C16.5347 47.9983 16.9959 47.537 17.5991 47.537H18.6635V49.6659Z" fill="#2F3655"/>
<path d="M18.6635 49.6659H16.5347V48.6015C16.5347 47.9983 16.9959 47.537 17.5991 47.537H18.6635V49.6659Z" fill="black" fill-opacity="0.2"/>
<path d="M20.7304 49.6659H18.6016V47.537H19.666C20.2691 47.537 20.7304 47.9983 20.7304 48.6015V49.6659Z" fill="#2F3655"/>
<path d="M20.7304 49.6659H18.6016V47.537H19.666C20.2691 47.537 20.7304 47.9983 20.7304 48.6015V49.6659Z" fill="black" fill-opacity="0.2"/>
<path d="M23.7995 49.6659C24.3874 49.6659 24.8639 49.1893 24.8639 48.6015C24.8639 48.0136 24.3874 47.537 23.7995 47.537C23.2117 47.537 22.7351 48.0136 22.7351 48.6015C22.7351 49.1893 23.2117 49.6659 23.7995 49.6659Z" fill="#2F3655"/>
<path d="M23.7995 49.6659C24.3874 49.6659 24.8639 49.1893 24.8639 48.6015C24.8639 48.0136 24.3874 47.537 23.7995 47.537C23.2117 47.537 22.7351 48.0136 22.7351 48.6015C22.7351 49.1893 23.2117 49.6659 23.7995 49.6659Z" fill="black" fill-opacity="0.2"/>
<path d="M33.1313 49.6659H31.0024V48.6015C31.0024 47.9983 31.4637 47.537 32.0669 47.537C32.67 47.537 33.1313 47.9983 33.1313 48.6015V49.6659Z" fill="#2F3655"/>
<path d="M33.1313 49.6659H31.0024V48.6015C31.0024 47.9983 31.4637 47.537 32.0669 47.537C32.67 47.537 33.1313 47.9983 33.1313 48.6015V49.6659Z" fill="black" fill-opacity="0.2"/>
<path d="M36.2004 49.6659C35.5972 49.6659 35.136 49.2046 35.136 48.6015V47.537H37.2648V48.6015C37.2648 49.2046 36.8036 49.6659 36.2004 49.6659Z" fill="#2F3655"/>
<path d="M36.2004 49.6659C35.5972 49.6659 35.136 49.2046 35.136 48.6015V47.537H37.2648V48.6015C37.2648 49.2046 36.8036 49.6659 36.2004 49.6659Z" fill="black" fill-opacity="0.2"/>
<path d="M41.3986 49.6659H40.3342C39.731 49.6659 39.2698 49.2046 39.2698 48.6015V47.537H41.3986V49.6659Z" fill="#2F3655"/>
<path d="M41.3986 49.6659H40.3342C39.731 49.6659 39.2698 49.2046 39.2698 48.6015V47.537H41.3986V49.6659Z" fill="black" fill-opacity="0.2"/>
<path d="M43.4655 47.537H41.3367V49.6659H43.4655V47.537Z" fill="#2F3655"/>
<path d="M43.4655 47.537H41.3367V49.6659H43.4655V47.537Z" fill="black" fill-opacity="0.2"/>
<path d="M51.7326 47.537H49.6038V49.6659H51.7326V47.537Z" fill="#2F3655"/>
<path d="M51.7326 47.537H49.6038V49.6659H51.7326V47.537Z" fill="black" fill-opacity="0.2"/>
<path d="M58.9355 49.6659C59.5234 49.6659 59.9999 49.1893 59.9999 48.6015C59.9999 48.0136 59.5234 47.537 58.9355 47.537C58.3476 47.537 57.8711 48.0136 57.8711 48.6015C57.8711 49.1893 58.3476 49.6659 58.9355 49.6659Z" fill="#2F3655"/>
<path d="M58.9355 49.6659C59.5234 49.6659 59.9999 49.1893 59.9999 48.6015C59.9999 48.0136 59.5234 47.537 58.9355 47.537C58.3476 47.537 57.8711 48.0136 57.8711 48.6015C57.8711 49.1893 58.3476 49.6659 58.9355 49.6659Z" fill="black" fill-opacity="0.2"/>
<path d="M18.6635 49.6039H16.5347V51.7327H18.6635V49.6039Z" fill="#2F3655"/>
<path d="M18.6635 49.6039H16.5347V51.7327H18.6635V49.6039Z" fill="black" fill-opacity="0.2"/>
<path d="M20.7304 49.6039H18.6016V51.7327H20.7304V49.6039Z" fill="#2F3655"/>
<path d="M20.7304 49.6039H18.6016V51.7327H20.7304V49.6039Z" fill="black" fill-opacity="0.2"/>
<path d="M21.7326 51.7327H20.6682V49.6039H21.7326C22.3358 49.6039 22.797 50.0651 22.797 50.6683C22.797 51.2715 22.3358 51.7327 21.7326 51.7327Z" fill="#2F3655"/>
<path d="M21.7326 51.7327H20.6682V49.6039H21.7326C22.3358 49.6039 22.797 50.0651 22.797 50.6683C22.797 51.2715 22.3358 51.7327 21.7326 51.7327Z" fill="black" fill-opacity="0.2"/>
<path d="M33.1313 49.6039H31.0024V51.7327H33.1313V49.6039Z" fill="#2F3655"/>
<path d="M33.1313 49.6039H31.0024V51.7327H33.1313V49.6039Z" fill="black" fill-opacity="0.2"/>
<path d="M38.2673 51.7327C38.8552 51.7327 39.3317 51.2562 39.3317 50.6683C39.3317 50.0804 38.8552 49.6039 38.2673 49.6039C37.6794 49.6039 37.2029 50.0804 37.2029 50.6683C37.2029 51.2562 37.6794 51.7327 38.2673 51.7327Z" fill="#2F3655"/>
<path d="M38.2673 51.7327C38.8552 51.7327 39.3317 51.2562 39.3317 50.6683C39.3317 50.0804 38.8552 49.6039 38.2673 49.6039C37.6794 49.6039 37.2029 50.0804 37.2029 50.6683C37.2029 51.2562 37.6794 51.7327 38.2673 51.7327Z" fill="black" fill-opacity="0.2"/>
<path d="M43.4655 51.7327H42.4011C41.7979 51.7327 41.3367 51.2715 41.3367 50.6683V49.6039H43.4655V51.7327Z" fill="#2F3655"/>
<path d="M43.4655 51.7327H42.4011C41.7979 51.7327 41.3367 51.2715 41.3367 50.6683V49.6039H43.4655V51.7327Z" fill="black" fill-opacity="0.2"/>
<path d="M45.5322 49.6039H43.4033V51.7327H45.5322V49.6039Z" fill="#2F3655"/>
<path d="M45.5322 49.6039H43.4033V51.7327H45.5322V49.6039Z" fill="black" fill-opacity="0.2"/>
<path d="M47.599 49.6039H45.4702V51.7327H47.599V49.6039Z" fill="#2F3655"/>
<path d="M47.599 49.6039H45.4702V51.7327H47.599V49.6039Z" fill="black" fill-opacity="0.2"/>
<path d="M49.6659 49.6039H47.5371V51.7327H49.6659V49.6039Z" fill="#2F3655"/>
<path d="M49.6659 49.6039H47.5371V51.7327H49.6659V49.6039Z" fill="black" fill-opacity="0.2"/>
<path d="M50.6682 51.7327H49.6038V49.6039H51.7326V50.6683C51.7326 51.2715 51.2713 51.7327 50.6682 51.7327Z" fill="#2F3655"/>
<path d="M50.6682 51.7327H49.6038V49.6039H51.7326V50.6683C51.7326 51.2715 51.2713 51.7327 50.6682 51.7327Z" fill="black" fill-opacity="0.2"/>
<path d="M55.8664 51.7327H53.7375V50.6683C53.7375 50.0651 54.1988 49.6039 54.802 49.6039C55.4051 49.6039 55.8664 50.0651 55.8664 50.6683V51.7327Z" fill="#2F3655"/>
<path d="M55.8664 51.7327H53.7375V50.6683C53.7375 50.0651 54.1988 49.6039 54.802 49.6039C55.4051 49.6039 55.8664 50.0651 55.8664 50.6683V51.7327Z" fill="black" fill-opacity="0.2"/>
<path d="M18.6635 51.6707H16.5347V53.7995H18.6635V51.6707Z" fill="#2F3655"/>
<path d="M18.6635 51.6707H16.5347V53.7995H18.6635V51.6707Z" fill="black" fill-opacity="0.2"/>
<path d="M20.7304 51.6707H18.6016V53.7995H20.7304V51.6707Z" fill="#2F3655"/>
<path d="M20.7304 51.6707H18.6016V53.7995H20.7304V51.6707Z" fill="black" fill-opacity="0.2"/>
<path d="M24.8639 53.7995H23.7995C23.1964 53.7995 22.7351 53.3383 22.7351 52.7351C22.7351 52.132 23.1964 51.6707 23.7995 51.6707H24.8639V53.7995Z" fill="#2F3655"/>
<path d="M24.8639 53.7995H23.7995C23.1964 53.7995 22.7351 53.3383 22.7351 52.7351C22.7351 52.132 23.1964 51.6707 23.7995 51.6707H24.8639V53.7995Z" fill="black" fill-opacity="0.2"/>
<path d="M25.8664 53.7995H24.802V51.6707H25.8664C26.4696 51.6707 26.9308 52.132 26.9308 52.7351C26.9308 53.3383 26.4696 53.7995 25.8664 53.7995Z" fill="#2F3655"/>
<path d="M25.8664 53.7995H24.802V51.6707H25.8664C26.4696 51.6707 26.9308 52.132 26.9308 52.7351C26.9308 53.3383 26.4696 53.7995 25.8664 53.7995Z" fill="black" fill-opacity="0.2"/>
<path d="M33.1313 51.6707H31.0024V53.7995H33.1313V51.6707Z" fill="#2F3655"/>
<path d="M33.1313 51.6707H31.0024V53.7995H33.1313V51.6707Z" fill="black" fill-opacity="0.2"/>
<path d="M53.7995 53.7995H51.6707V52.7351C51.6707 52.132 52.1319 51.6707 52.7351 51.6707H53.7995V53.7995Z" fill="#2F3655"/>
<path d="M53.7995 53.7995H51.6707V52.7351C51.6707 52.132 52.1319 51.6707 52.7351 51.6707H53.7995V53.7995Z" fill="black" fill-opacity="0.2"/>
<path d="M55.8664 51.6707H53.7375V53.7995H55.8664V51.6707Z" fill="#2F3655"/>
<path d="M55.8664 51.6707H53.7375V53.7995H55.8664V51.6707Z" fill="black" fill-opacity="0.2"/>
<path d="M18.6635 55.8663H17.5991C16.9959 55.8663 16.5347 55.4051 16.5347 54.8019V53.7375H18.6635V55.8663Z" fill="#2F3655"/>
<path d="M18.6635 55.8663H17.5991C16.9959 55.8663 16.5347 55.4051 16.5347 54.8019V53.7375H18.6635V55.8663Z" fill="black" fill-opacity="0.2"/>
<path d="M20.7304 53.7375H18.6016V55.8663H20.7304V53.7375Z" fill="#2F3655"/>
<path d="M20.7304 53.7375H18.6016V55.8663H20.7304V53.7375Z" fill="black" fill-opacity="0.2"/>
<path d="M22.797 55.8663H20.6682V53.7375H21.7326C22.3358 53.7375 22.797 54.1987 22.797 54.8019V55.8663Z" fill="#2F3655"/>
<path d="M22.797 55.8663H20.6682V53.7375H21.7326C22.3358 53.7375 22.797 54.1987 22.797 54.8019V55.8663Z" fill="black" fill-opacity="0.2"/>
<path d="M33.1313 53.7375H31.0024V55.8663H33.1313V53.7375Z" fill="#2F3655"/>
<path d="M33.1313 53.7375H31.0024V55.8663H33.1313V53.7375Z" fill="black" fill-opacity="0.2"/>
<path d="M37.2648 55.8663H35.136V54.8019C35.136 54.1987 35.5972 53.7375 36.2004 53.7375H37.2648V55.8663Z" fill="#2F3655"/>
<path d="M37.2648 55.8663H35.136V54.8019C35.136 54.1987 35.5972 53.7375 36.2004 53.7375H37.2648V55.8663Z" fill="black" fill-opacity="0.2"/>
<path d="M39.3317 53.7375H37.2029V55.8663H39.3317V53.7375Z" fill="#2F3655"/>
<path d="M39.3317 53.7375H37.2029V55.8663H39.3317V53.7375Z" fill="black" fill-opacity="0.2"/>
<path d="M41.3986 55.8663H39.2698V53.7375H40.3342C40.9374 53.7375 41.3986 54.1987 41.3986 54.8019V55.8663Z" fill="#2F3655"/>
<path d="M41.3986 55.8663H39.2698V53.7375H40.3342C40.9374 53.7375 41.3986 54.1987 41.3986 54.8019V55.8663Z" fill="black" fill-opacity="0.2"/>
<path d="M45.5322 55.8663H43.4033V54.8019C43.4033 54.1987 43.8646 53.7375 44.4677 53.7375H45.5322V55.8663Z" fill="#2F3655"/>
<path d="M45.5322 55.8663H43.4033V54.8019C43.4033 54.1987 43.8646 53.7375 44.4677 53.7375H45.5322V55.8663Z" fill="black" fill-opacity="0.2"/>
<path d="M47.599 53.7375H45.4702V55.8663H47.599V53.7375Z" fill="#2F3655"/>
<path d="M47.599 53.7375H45.4702V55.8663H47.599V53.7375Z" fill="black" fill-opacity="0.2"/>
<path d="M49.6659 53.7375H47.5371V55.8663H49.6659V53.7375Z" fill="#2F3655"/>
<path d="M49.6659 53.7375H47.5371V55.8663H49.6659V53.7375Z" fill="black" fill-opacity="0.2"/>
<path d="M51.7326 53.7375H49.6038V55.8663H51.7326V53.7375Z" fill="#2F3655"/>
<path d="M51.7326 53.7375H49.6038V55.8663H51.7326V53.7375Z" fill="black" fill-opacity="0.2"/>
<path d="M53.7995 53.7375H51.6707V55.8663H53.7995V53.7375Z" fill="#2F3655"/>
<path d="M53.7995 53.7375H51.6707V55.8663H53.7995V53.7375Z" fill="black" fill-opacity="0.2"/>
<path d="M55.8664 53.7375H53.7375V55.8663H55.8664V53.7375Z" fill="#2F3655"/>
<path d="M55.8664 53.7375H53.7375V55.8663H55.8664V53.7375Z" fill="black" fill-opacity="0.2"/>
<path d="M57.9333 55.8663H55.8044V53.7375H56.8689C57.472 53.7375 57.9333 54.1987 57.9333 54.8019V55.8663Z" fill="#2F3655"/>
<path d="M57.9333 55.8663H55.8044V53.7375H56.8689C57.472 53.7375 57.9333 54.1987 57.9333 54.8019V55.8663Z" fill="black" fill-opacity="0.2"/>
<path d="M20.7304 55.8043H18.6016V57.9332H20.7304V55.8043Z" fill="#2F3655"/>
<path d="M20.7304 55.8043H18.6016V57.9332H20.7304V55.8043Z" fill="black" fill-opacity="0.2"/>
<path d="M22.797 55.8043H20.6682V57.9332H22.797V55.8043Z" fill="#2F3655"/>
<path d="M22.797 55.8043H20.6682V57.9332H22.797V55.8043Z" fill="black" fill-opacity="0.2"/>
<path d="M27.9331 57.9332C28.5209 57.9332 28.9975 57.4566 28.9975 56.8687C28.9975 56.2809 28.5209 55.8043 27.9331 55.8043C27.3452 55.8043 26.8687 56.2809 26.8687 56.8687C26.8687 57.4566 27.3452 57.9332 27.9331 57.9332Z" fill="#2F3655"/>
<path d="M27.9331 57.9332C28.5209 57.9332 28.9975 57.4566 28.9975 56.8687C28.9975 56.2809 28.5209 55.8043 27.9331 55.8043C27.3452 55.8043 26.8687 56.2809 26.8687 56.8687C26.8687 57.4566 27.3452 57.9332 27.9331 57.9332Z" fill="black" fill-opacity="0.2"/>
<path d="M33.1313 55.8043H31.0024V57.9332H33.1313V55.8043Z" fill="#2F3655"/>
<path d="M33.1313 55.8043H31.0024V57.9332H33.1313V55.8043Z" fill="black" fill-opacity="0.2"/>
<path d="M36.2004 57.9332C35.5972 57.9332 35.136 57.4719 35.136 56.8687V55.8043H37.2648V56.8687C37.2648 57.4719 36.8036 57.9332 36.2004 57.9332Z" fill="#2F3655"/>
<path d="M36.2004 57.9332C35.5972 57.9332 35.136 57.4719 35.136 56.8687V55.8043H37.2648V56.8687C37.2648 57.4719 36.8036 57.9332 36.2004 57.9332Z" fill="black" fill-opacity="0.2"/>
<path d="M41.3986 55.8043H39.2698V57.9332H41.3986V55.8043Z" fill="#2F3655"/>
<path d="M41.3986 55.8043H39.2698V57.9332H41.3986V55.8043Z" fill="black" fill-opacity="0.2"/>
<path d="M43.4655 55.8043H41.3367V57.9332H43.4655V55.8043Z" fill="#2F3655"/>
<path d="M43.4655 55.8043H41.3367V57.9332H43.4655V55.8043Z" fill="black" fill-opacity="0.2"/>
<path d="M45.5322 55.8043H43.4033V57.9332H45.5322V55.8043Z" fill="#2F3655"/>
<path d="M45.5322 55.8043H43.4033V57.9332H45.5322V55.8043Z" fill="black" fill-opacity="0.2"/>
<path d="M47.599 55.8043H45.4702V57.9332H47.599V55.8043Z" fill="#2F3655"/>
<path d="M47.599 55.8043H45.4702V57.9332H47.599V55.8043Z" fill="black" fill-opacity="0.2"/>
<path d="M48.6015 57.9332H47.5371V55.8043H49.6659V56.8687C49.6659 57.4719 49.2047 57.9332 48.6015 57.9332Z" fill="#2F3655"/>
<path d="M48.6015 57.9332H47.5371V55.8043H49.6659V56.8687C49.6659 57.4719 49.2047 57.9332 48.6015 57.9332Z" fill="black" fill-opacity="0.2"/>
<path d="M52.7351 57.9332C52.1319 57.9332 51.6707 57.4719 51.6707 56.8687V55.8043H53.7995V56.8687C53.7995 57.4719 53.3382 57.9332 52.7351 57.9332Z" fill="#2F3655"/>
<path d="M52.7351 57.9332C52.1319 57.9332 51.6707 57.4719 51.6707 56.8687V55.8043H53.7995V56.8687C53.7995 57.4719 53.3382 57.9332 52.7351 57.9332Z" fill="black" fill-opacity="0.2"/>
<path d="M56.8689 57.9332C56.2657 57.9332 55.8044 57.4719 55.8044 56.8687V55.8043H57.9333V56.8687C57.9333 57.4719 57.472 57.9332 56.8689 57.9332Z" fill="#2F3655"/>
<path d="M56.8689 57.9332C56.2657 57.9332 55.8044 57.4719 55.8044 56.8687V55.8043H57.9333V56.8687C57.9333 57.4719 57.472 57.9332 56.8689 57.9332Z" fill="black" fill-opacity="0.2"/>
<path d="M18.6635 60H17.5991C16.9959 60 16.5347 59.5387 16.5347 58.9356C16.5347 58.3324 16.9959 57.8712 17.5991 57.8712H18.6635V60Z" fill="#2F3655"/>
<path d="M18.6635 60H17.5991C16.9959 60 16.5347 59.5387 16.5347 58.9356C16.5347 58.3324 16.9959 57.8712 17.5991 57.8712H18.6635V60Z" fill="black" fill-opacity="0.2"/>
<path d="M20.7304 57.8712H18.6016V60H20.7304V57.8712Z" fill="#2F3655"/>
<path d="M20.7304 57.8712H18.6016V60H20.7304V57.8712Z" fill="black" fill-opacity="0.2"/>
<path d="M21.7326 60H20.6682V57.8712H22.797V58.9356C22.797 59.5387 22.3358 60 21.7326 60Z" fill="#2F3655"/>
<path d="M21.7326 60H20.6682V57.8712H22.797V58.9356C22.797 59.5387 22.3358 60 21.7326 60Z" fill="black" fill-opacity="0.2"/>
<path d="M33.1313 60H32.0669C31.4637 60 31.0024 59.5387 31.0024 58.9356V57.8712H33.1313V60Z" fill="#2F3655"/>
<path d="M33.1313 60H32.0669C31.4637 60 31.0024 59.5387 31.0024 58.9356V57.8712H33.1313V60Z" fill="black" fill-opacity="0.2"/>
<path d="M34.1338 60H33.0693V57.8712H34.1338C34.7369 57.8712 35.1982 58.3324 35.1982 58.9356C35.1982 59.5387 34.7369 60 34.1338 60Z" fill="#2F3655"/>
<path d="M34.1338 60H33.0693V57.8712H34.1338C34.7369 57.8712 35.1982 58.3324 35.1982 58.9356C35.1982 59.5387 34.7369 60 34.1338 60Z" fill="black" fill-opacity="0.2"/>
<path d="M39.3317 60H38.2673C37.6641 60 37.2029 59.5387 37.2029 58.9356C37.2029 58.3324 37.6641 57.8712 38.2673 57.8712H39.3317V60Z" fill="#2F3655"/>
<path d="M39.3317 60H38.2673C37.6641 60 37.2029 59.5387 37.2029 58.9356C37.2029 58.3324 37.6641 57.8712 38.2673 57.8712H39.3317V60Z" fill="black" fill-opacity="0.2"/>
<path d="M40.3342 60H39.2698V57.8712H41.3986V58.9356C41.3986 59.5387 40.9374 60 40.3342 60Z" fill="#2F3655"/>
<path d="M40.3342 60H39.2698V57.8712H41.3986V58.9356C41.3986 59.5387 40.9374 60 40.3342 60Z" fill="black" fill-opacity="0.2"/>
<path d="M50.6682 60C51.256 60 51.7326 59.5234 51.7326 58.9356C51.7326 58.3477 51.256 57.8712 50.6682 57.8712C50.0803 57.8712 49.6038 58.3477 49.6038 58.9356C49.6038 59.5234 50.0803 60 50.6682 60Z" fill="#2F3655"/>
<path d="M50.6682 60C51.256 60 51.7326 59.5234 51.7326 58.9356C51.7326 58.3477 51.256 57.8712 50.6682 57.8712C50.0803 57.8712 49.6038 58.3477 49.6038 58.9356C49.6038 59.5234 50.0803 60 50.6682 60Z" fill="black" fill-opacity="0.2"/>
<path d="M54.802 60C55.3898 60 55.8664 59.5234 55.8664 58.9356C55.8664 58.3477 55.3898 57.8712 54.802 57.8712C54.2141 57.8712 53.7375 58.3477 53.7375 58.9356C53.7375 59.5234 54.2141 60 54.802 60Z" fill="#2F3655"/>
<path d="M54.802 60C55.3898 60 55.8664 59.5234 55.8664 58.9356C55.8664 58.3477 55.3898 57.8712 54.802 57.8712C54.2141 57.8712 53.7375 58.3477 53.7375 58.9356C53.7375 59.5234 54.2141 60 54.802 60Z" fill="black" fill-opacity="0.2"/>
<path d="M4.65036 14.4678H9.92077C12.401 14.4678 14.4678 12.401 14.4678 9.92077V4.65036C14.4678 2.06683 12.401 0 9.81743 0H4.54702C2.06683 0 0 2.06683 0 4.54702V9.81743C0 12.401 2.06683 14.4678 4.65036 14.4678ZM12.401 4.96039V9.50741C12.401 11.0575 11.0575 12.401 9.50741 12.401H4.96039C3.30692 12.401 2.06683 11.1609 2.06683 9.50741V4.96039C2.06683 3.41027 3.41027 2.06683 4.96039 2.06683H9.50741C11.1609 2.06683 12.401 3.30692 12.401 4.96039Z" fill="#2F3655"/>
<path d="M4.65036 14.4678H9.92077C12.401 14.4678 14.4678 12.401 14.4678 9.92077V4.65036C14.4678 2.06683 12.401 0 9.81743 0H4.54702C2.06683 0 0 2.06683 0 4.54702V9.81743C0 12.401 2.06683 14.4678 4.65036 14.4678ZM12.401 4.96039V9.50741C12.401 11.0575 11.0575 12.401 9.50741 12.401H4.96039C3.30692 12.401 2.06683 11.1609 2.06683 9.50741V4.96039C2.06683 3.41027 3.41027 2.06683 4.96039 2.06683H9.50741C11.1609 2.06683 12.401 3.30692 12.401 4.96039Z" fill="black" fill-opacity="0.2"/>
<path d="M50.1206 14.4678H55.391C57.8712 14.4678 59.938 12.401 59.938 9.92077V4.65036C59.938 2.06683 57.8712 0 55.2876 0H50.0172C47.537 0 45.4702 2.06683 45.4702 4.54702V9.81743C45.4702 12.401 47.537 14.4678 50.1206 14.4678ZM57.8712 4.96039V9.50741C57.8712 11.0575 56.5277 12.401 54.9776 12.401H50.4306C48.7771 12.401 47.537 11.1609 47.537 9.50741V4.96039C47.537 3.41027 48.8805 2.06683 50.4306 2.06683H54.9776C56.6311 2.06683 57.8712 3.30692 57.8712 4.96039Z" fill="#2F3655"/>
<path d="M50.1206 14.4678H55.391C57.8712 14.4678 59.938 12.401 59.938 9.92077V4.65036C59.938 2.06683 57.8712 0 55.2876 0H50.0172C47.537 0 45.4702 2.06683 45.4702 4.54702V9.81743C45.4702 12.401 47.537 14.4678 50.1206 14.4678ZM57.8712 4.96039V9.50741C57.8712 11.0575 56.5277 12.401 54.9776 12.401H50.4306C48.7771 12.401 47.537 11.1609 47.537 9.50741V4.96039C47.537 3.41027 48.8805 2.06683 50.4306 2.06683H54.9776C56.6311 2.06683 57.8712 3.30692 57.8712 4.96039Z" fill="black" fill-opacity="0.2"/>
<path d="M4.65036 59.938H9.92077C12.401 59.938 14.4678 57.8712 14.4678 55.391V50.1206C14.4678 47.537 12.401 45.4702 9.81743 45.4702H4.54702C2.06683 45.4702 0 47.537 0 50.0172V55.2876C0 57.8712 2.06683 59.938 4.65036 59.938ZM12.401 50.4306V54.9776C12.401 56.5277 11.0575 57.8712 9.50741 57.8712H4.96039C3.30692 57.8712 2.06683 56.6311 2.06683 54.9776V50.4306C2.06683 48.8805 3.41027 47.537 4.96039 47.537H9.50741C11.1609 47.537 12.401 48.7771 12.401 50.4306Z" fill="#2F3655"/>
<path d="M4.65036 59.938H9.92077C12.401 59.938 14.4678 57.8712 14.4678 55.391V50.1206C14.4678 47.537 12.401 45.4702 9.81743 45.4702H4.54702C2.06683 45.4702 0 47.537 0 50.0172V55.2876C0 57.8712 2.06683 59.938 4.65036 59.938ZM12.401 50.4306V54.9776C12.401 56.5277 11.0575 57.8712 9.50741 57.8712H4.96039C3.30692 57.8712 2.06683 56.6311 2.06683 54.9776V50.4306C2.06683 48.8805 3.41027 47.537 4.96039 47.537H9.50741C11.1609 47.537 12.401 48.7771 12.401 50.4306Z" fill="black" fill-opacity="0.2"/>
<path d="M7.23379 10.3341C8.946 10.3341 10.334 8.94612 10.334 7.23391C10.334 5.52169 8.946 4.13367 7.23379 4.13367C5.52157 4.13367 4.13354 5.52169 4.13354 7.23391C4.13354 8.94612 5.52157 10.3341 7.23379 10.3341Z" fill="#2F3655"/>
<path d="M7.23379 10.3341C8.946 10.3341 10.334 8.94612 10.334 7.23391C10.334 5.52169 8.946 4.13367 7.23379 4.13367C5.52157 4.13367 4.13354 5.52169 4.13354 7.23391C4.13354 8.94612 5.52157 10.3341 7.23379 10.3341Z" fill="black" fill-opacity="0.2"/>
<path d="M52.704 10.3341C54.4162 10.3341 55.8042 8.94612 55.8042 7.23391C55.8042 5.52169 54.4162 4.13367 52.704 4.13367C50.9918 4.13367 49.6038 5.52169 49.6038 7.23391C49.6038 8.94612 50.9918 10.3341 52.704 10.3341Z" fill="#2F3655"/>
<path d="M52.704 10.3341C54.4162 10.3341 55.8042 8.94612 55.8042 7.23391C55.8042 5.52169 54.4162 4.13367 52.704 4.13367C50.9918 4.13367 49.6038 5.52169 49.6038 7.23391C49.6038 8.94612 50.9918 10.3341 52.704 10.3341Z" fill="black" fill-opacity="0.2"/>
<path d="M7.23379 55.8044C8.946 55.8044 10.334 54.4163 10.334 52.7041C10.334 50.9919 8.946 49.6039 7.23379 49.6039C5.52157 49.6039 4.13354 50.9919 4.13354 52.7041C4.13354 54.4163 5.52157 55.8044 7.23379 55.8044Z" fill="#2F3655"/>
<path d="M7.23379 55.8044C8.946 55.8044 10.334 54.4163 10.334 52.7041C10.334 50.9919 8.946 49.6039 7.23379 49.6039C5.52157 49.6039 4.13354 50.9919 4.13354 52.7041C4.13354 54.4163 5.52157 55.8044 7.23379 55.8044Z" fill="black" fill-opacity="0.2"/>
</svg>
